
<svg width="1200" height="826" viewBox="0 0 1200 826" fill="none" xmlns="http://www.w3.org/2000/svg">
<g opacity="0.7">
<path fill-rule="evenodd" clip-rule="evenodd" d="M-1188.62 -0.958151C-986.887 23.2492 -741.088 138.618 -399.153 462.377C-57.4998 785.869 236.21 842.711 444.444 818.764C548.575 806.789 631.36 774.609 688.104 745.428C716.476 730.837 738.337 716.998 753.099 706.81C760.48 701.716 766.087 697.535 769.845 694.631C771.724 693.178 773.141 692.045 774.087 691.276C774.56 690.891 774.915 690.598 775.151 690.401C775.26 690.311 775.343 690.241 775.401 690.192L775.416 690.179L775.481 690.124L775.497 690.111C775.5 690.108 775.501 690.107 776.08 691.086C776.659 692.064 776.657 692.066 776.653 692.07L776.635 692.085L776.565 692.144C776.504 692.196 776.412 692.272 776.291 692.373C776.049 692.575 775.688 692.873 775.208 693.263C774.25 694.042 772.82 695.186 770.928 696.649C767.143 699.574 761.508 703.776 754.096 708.891C739.273 719.12 717.342 733.003 688.892 747.634C631.991 776.895 549.005 809.151 444.635 821.154C235.865 845.162 -58.3517 788.12 -400.392 464.261C-742.151 140.669 -987.596 25.5764 -1188.82 1.43031C-1346.53 -17.4943 -1477.11 19.4193 -1605.82 55.8058C-1641.38 65.8579 -1676.79 75.8698 -1712.6 84.6531L-1713 82.3013C-1677.3 73.5442 -1641.95 63.5505 -1606.44 53.509C-1477.68 17.1059 -1346.69 -19.9265 -1188.62 -0.958151Z" fill="url(#paint0_linear_12_6)"/>
<path fill-rule="evenodd" clip-rule="evenodd" d="M-1161.69 -19.1952C-960.068 8.01779 -715.34 126.549 -373.241 449.979C-31.42 773.145 262.153 827.635 470.208 801.42C574.251 788.311 656.937 755.016 713.605 725.005C741.939 709.999 763.767 695.815 778.506 685.387C785.876 680.173 791.473 675.898 795.225 672.929C797.101 671.445 798.516 670.287 799.46 669.501C799.932 669.108 800.287 668.809 800.523 668.608C800.641 668.507 800.729 668.432 800.787 668.381L800.852 668.325L800.868 668.311C800.869 668.31 800.871 668.309 800.928 668.402C800.995 668.511 801.142 668.752 801.46 669.278C802.048 670.249 802.045 670.252 802.041 670.255L801.954 670.331C801.892 670.384 801.801 670.462 801.68 670.565C801.524 670.699 801.317 670.874 801.06 671.089C800.921 671.206 800.768 671.334 800.6 671.474C799.643 672.27 798.216 673.438 796.326 674.933C792.548 677.923 786.922 682.219 779.522 687.455C764.722 697.926 742.825 712.154 714.412 727.201C657.588 757.295 574.7 790.668 470.417 803.807C261.821 830.09 -32.2662 775.401 -374.478 451.864C-716.411 128.593 -960.794 10.3353 -1161.92 -16.8099C-1323.08 -38.5611 -1456.5 -1.83969 -1590.31 34.9863C-1623.53 44.1293 -1656.77 53.2786 -1690.47 61.5412L-1690.87 59.1894C-1657.26 50.948 -1624.07 41.8131 -1590.88 32.6784C-1457.04 -4.16137 -1323.22 -40.9964 -1161.69 -19.1952Z" fill="url(#paint1_linear_12_6)"/>
<path fill-rule="evenodd" clip-rule="evenodd" d="M-1134.71 -37.5242C-933.164 -7.33643 -689.491 114.358 -347.26 437.5C-5.30701 760.381 288.094 812.535 495.946 784.059C599.887 769.82 682.463 735.412 739.048 704.57C767.34 689.15 789.133 674.621 803.847 663.952C811.204 658.618 816.792 654.249 820.537 651.215C822.41 649.699 823.822 648.516 824.764 647.714C825.236 647.313 825.589 647.007 825.825 646.802C825.942 646.7 826.031 646.622 826.089 646.571L826.154 646.514L826.169 646.5C826.171 646.498 826.172 646.497 826.233 646.594C826.303 646.704 826.451 646.944 826.77 647.459C827.366 648.422 827.364 648.425 827.36 648.428L827.342 648.444L827.272 648.506C827.211 648.56 827.12 648.639 827 648.745C826.759 648.955 826.399 649.266 825.921 649.672C824.966 650.485 823.542 651.678 821.656 653.205C817.884 656.26 812.269 660.651 804.881 666.007C790.107 676.719 768.245 691.293 739.875 706.756C683.135 737.682 600.356 772.171 496.173 786.444C287.775 814.995 -6.14758 762.641 -348.497 439.386C-690.57 116.393 -933.907 -5.02863 -1134.96 -35.1423C-1299.88 -59.845 -1436.4 -23.1323 -1575.85 14.3688C-1606.43 22.5917 -1637.15 30.8525 -1668.34 38.5121L-1668.74 36.1604C-1637.62 28.5173 -1606.94 20.2673 -1576.39 12.0505C-1436.92 -25.4612 -1300.01 -62.2831 -1134.71 -37.5242Z" fill="url(#paint2_linear_12_6)"/>
<path fill-rule="evenodd" clip-rule="evenodd" d="M-1107.78 -55.8016C-906.346 -22.6288 -663.743 102.209 -321.348 425.021C20.7722 747.574 314.037 797.375 521.71 766.631C625.563 751.257 708.041 715.736 764.549 684.063C792.803 668.227 814.563 653.354 829.255 642.445C836.601 636.991 842.179 632.527 845.918 629.43C847.788 627.881 849.198 626.674 850.138 625.855C850.609 625.446 850.962 625.134 851.197 624.924C851.315 624.82 851.403 624.741 851.461 624.689L851.526 624.63L851.541 624.616C851.544 624.613 851.546 624.612 852.15 625.568C852.755 626.524 852.753 626.526 852.748 626.53L852.73 626.546L852.661 626.608C852.6 626.663 852.509 626.745 852.389 626.852C852.148 627.067 851.789 627.384 851.312 627.799C850.359 628.628 848.937 629.846 847.054 631.405C843.289 634.524 837.683 639.01 830.307 644.486C815.556 655.44 793.727 670.359 765.396 686.238C708.732 717.997 626.052 753.603 521.955 769.014C313.731 799.839 19.9375 749.839 -322.583 426.909C-664.83 104.236 -907.104 -20.3308 -1108.06 -53.4236C-1276.91 -81.2308 -1416.65 -44.478 -1562.24 -6.18625C-1589.94 1.09851 -1617.85 8.43897 -1646.21 15.4012L-1646.61 13.0495C-1618.3 6.09925 -1590.42 -1.23377 -1562.74 -8.51472C-1417.14 -46.8137 -1277.02 -83.6716 -1107.78 -55.8016Z" fill="url(#paint3_linear_12_6)"/>
<path fill-rule="evenodd" clip-rule="evenodd" d="M-1080.81 -74.0392C-879.426 -37.8611 -637.86 90.1392 -295.368 412.623C46.8516 734.85 339.96 782.299 547.453 749.287C651.216 732.779 733.598 696.143 790.034 663.64C818.251 647.389 839.98 632.172 854.65 621.022C861.985 615.447 867.555 610.89 871.289 607.728C873.155 606.147 874.563 604.915 875.502 604.08C875.972 603.663 876.325 603.344 876.559 603.131C876.677 603.024 876.764 602.944 876.823 602.89L876.887 602.83L876.903 602.816C876.906 602.813 876.908 602.812 877.52 603.76C878.133 604.709 878.131 604.711 878.126 604.715L878.108 604.731L878.039 604.795C877.979 604.851 877.888 604.934 877.768 605.044C877.527 605.262 877.168 605.586 876.693 606.009C876.077 606.556 875.266 607.269 874.261 608.135C873.712 608.608 873.106 609.127 872.442 609.689C868.683 612.873 863.085 617.453 855.72 623.05C840.992 634.245 819.194 649.509 790.899 665.805C734.309 698.396 651.724 735.119 547.716 751.667C339.667 784.767 46.0226 737.12 -296.602 414.511C-638.955 92.1586 -880.201 -35.5731 -1081.1 -71.6653C-1254.26 -102.772 -1397.51 -65.8348 -1549.94 -26.5321C-1574.39 -20.2288 -1599.07 -13.8647 -1624.15 -7.71065L-1624.55 -10.0624C-1599.5 -16.2089 -1574.84 -22.5688 -1550.4 -28.8705C-1397.98 -68.1766 -1254.35 -105.215 -1080.81 -74.0392Z" fill="url(#paint4_linear_12_6)"/>
<path fill-rule="evenodd" clip-rule="evenodd" d="M-1053.82 -92.3469C-852.524 -53.1942 -612.011 77.9486 -269.388 400.144C72.9648 722.085 365.902 767.202 573.191 731.931C676.852 714.293 759.125 676.546 815.477 643.213C843.653 626.547 865.346 610.986 879.991 599.596C887.314 593.901 892.874 589.249 896.601 586.023C898.464 584.41 899.869 583.154 900.807 582.302C901.275 581.876 901.628 581.551 901.862 581.334L902.125 581.088L902.189 581.027L902.205 581.013C902.208 581.01 902.209 581.008 902.83 581.949C903.451 582.89 903.448 582.893 903.444 582.897L903.426 582.913L903.357 582.978C903.297 583.035 903.206 583.12 903.086 583.232C902.962 583.347 902.807 583.49 902.621 583.662C902.446 583.822 902.243 584.007 902.013 584.216C901.064 585.078 899.646 586.346 897.771 587.97C894.018 591.217 888.431 595.892 881.079 601.61C866.376 613.046 844.614 628.655 816.361 645.366C759.856 678.79 677.38 716.628 573.471 734.308C365.622 769.674 72.1416 724.36 -270.621 402.033C-613.115 79.9602 -853.314 -50.9162 -1054.14 -89.9774C-1231.78 -124.527 -1378.69 -87.2744 -1538.59 -46.7285C-1559.48 -41.4314 -1580.59 -36.0782 -1602.02 -30.8215L-1602.42 -33.1732C-1581 -38.4266 -1559.9 -43.7789 -1539.01 -49.0767C-1379.13 -89.6217 -1231.85 -126.973 -1053.82 -92.3469Z" fill="url(#paint5_linear_12_6)"/>
<path fill-rule="evenodd" clip-rule="evenodd" d="M-1026.9 -110.685C-825.705 -68.5476 -586.263 65.7581 -243.475 387.665C99.0447 709.32 391.845 752.084 598.956 714.535C702.528 695.757 784.703 656.888 840.979 622.718C869.116 605.634 890.778 589.725 905.4 578.092C912.711 572.276 918.261 567.529 921.982 564.238C923.842 562.593 925.245 561.312 926.181 560.443C926.649 560.009 927.001 559.678 927.235 559.456L927.497 559.206L927.562 559.144L927.577 559.129C927.58 559.126 927.582 559.124 928.21 560.058C928.559 560.575 928.713 560.807 928.781 560.911C928.836 560.994 928.834 560.996 928.832 560.998L928.746 561.081C928.685 561.139 928.595 561.225 928.475 561.339C928.236 561.566 927.878 561.903 927.404 562.342C926.456 563.222 925.042 564.514 923.169 566.17C919.423 569.483 913.845 574.253 906.505 580.093C891.825 591.772 870.096 607.729 841.882 624.86C785.453 659.122 703.075 698.085 599.254 716.908C391.578 754.56 98.2272 711.6 -244.708 389.555C-587.375 67.7617 -826.511 -66.2797 -1027.24 -108.32C-1209.66 -146.526 -1360.45 -108.78 -1528.65 -66.6737C-1545.54 -62.4463 -1562.6 -58.1751 -1579.89 -53.9324L-1580.29 -56.2841C-1563 -60.5276 -1545.93 -64.8011 -1529.03 -69.0316C-1360.87 -111.132 -1209.72 -148.974 -1026.9 -110.685Z" fill="url(#paint6_linear_12_6)"/>
<path fill-rule="evenodd" clip-rule="evenodd" d="M-999.923 -128.921C-798.802 -83.779 -560.413 53.6895 -217.495 375.268C125.157 696.597 417.802 737.008 624.723 697.19C728.202 677.278 810.275 637.295 866.473 602.294C894.572 584.794 916.2 568.541 930.798 556.667C938.098 550.731 943.639 545.889 947.354 542.534C949.211 540.857 950.611 539.551 951.546 538.666C952.013 538.224 952.364 537.886 952.597 537.66L952.783 537.479L952.859 537.406L952.924 537.342L952.939 537.327C952.942 537.324 952.944 537.322 953.58 538.248C954.216 539.174 954.214 539.176 954.21 539.181L954.192 539.198L954.123 539.265L953.966 539.419L953.853 539.528C953.614 539.76 953.258 540.103 952.784 540.551C951.838 541.447 950.426 542.764 948.556 544.452C944.817 547.83 939.249 552.694 931.92 558.654C917.264 570.575 895.569 586.877 867.394 604.425C811.045 639.519 728.768 679.6 625.04 699.56C417.547 739.488 124.346 698.882 -218.727 377.159C-561.533 55.6853 -799.623 -81.5213 -1000.29 -126.562C-1187.83 -168.656 -1342.78 -130.278 -1520.23 -86.326C-1532.65 -83.2504 -1545.17 -80.1475 -1557.83 -77.0429L-1558.23 -79.3947C-1545.55 -82.5041 -1533 -85.6125 -1520.56 -88.694C-1343.17 -132.635 -1187.86 -171.105 -999.923 -128.921Z" fill="url(#paint7_linear_12_6)"/>
<path fill-rule="evenodd" clip-rule="evenodd" d="M-972.972 -147.229C-771.95 -99.1124 -534.632 41.4982 -191.583 362.788C151.202 683.831 443.693 721.89 650.427 679.793C753.813 658.741 835.785 617.636 891.906 581.798C919.966 563.88 941.562 547.279 956.137 535.163C963.425 529.105 968.958 524.168 972.666 520.748C974.52 519.038 975.918 517.708 976.851 516.806C977.198 516.471 977.481 516.195 977.699 515.98L977.901 515.781L978.1 515.584L978.162 515.522L978.242 515.442C978.245 515.438 978.247 515.437 978.89 516.355C979.534 517.274 979.532 517.276 979.528 517.28L979.51 517.298L979.441 517.367L979.172 517.635C978.933 517.87 978.577 518.219 978.105 518.676C977.161 519.589 975.751 520.93 973.884 522.652C970.152 526.094 964.593 531.054 957.276 537.136C942.644 549.299 920.982 565.95 892.846 583.917C836.574 619.851 754.398 661.056 650.762 682.16C443.451 724.373 150.397 686.121 -192.813 364.68C-535.76 43.486 -772.786 -96.865 -973.363 -144.875C-1166.22 -191.037 -1325.48 -151.861 -1513.06 -105.716C-1520.56 -103.871 -1528.11 -102.016 -1535.7 -100.154L-1536.1 -102.506C-1528.47 -104.376 -1520.89 -106.241 -1513.36 -108.094C-1325.85 -154.221 -1166.24 -193.488 -972.972 -147.229Z" fill="url(#paint8_linear_12_6)"/>
<path fill-rule="evenodd" clip-rule="evenodd" d="M-945.988 -165.566C-745.048 -114.466 -508.783 29.3077 -165.603 350.309C177.316 671.066 469.652 706.792 676.2 662.437C779.494 640.256 861.365 598.039 917.409 561.371C945.431 543.038 966.993 526.093 981.546 513.736C988.822 507.558 994.346 502.527 998.048 499.043C999.899 497.301 1001.29 495.946 1002.23 495.028C1002.69 494.569 1003.04 494.219 1003.27 493.984C1003.39 493.867 1003.48 493.779 1003.53 493.72L1003.6 493.654L1003.61 493.638C1003.62 493.635 1003.62 493.634 1004.27 494.544C1004.92 495.455 1004.92 495.458 1004.91 495.462L1004.9 495.48L1004.83 495.55L1004.56 495.822C1004.32 496.062 1003.97 496.418 1003.49 496.883C1002.55 497.812 1001.14 499.179 999.282 500.932C995.555 504.439 990.006 509.494 982.701 515.696C968.092 528.1 946.464 545.096 918.366 563.479C862.173 600.244 780.098 642.564 676.552 664.8C469.423 709.28 176.516 673.362 -166.832 352.202C-509.92 31.2875 -745.899 -112.229 -946.403 -163.218C-1144.96 -213.713 -1308.83 -173.503 -1507.75 -124.693C-1509.69 -124.218 -1511.63 -123.742 -1513.57 -123.266L-1513.97 -125.618C-1511.98 -126.107 -1509.99 -126.595 -1508 -127.082C-1309.18 -175.867 -1144.96 -216.165 -945.988 -165.566Z" fill="url(#paint9_linear_12_6)"/>
<path fill-rule="evenodd" clip-rule="evenodd" d="M-919.004 -183.792C-718.145 -129.697 -482.933 17.2391 -139.623 337.91C203.428 658.342 495.609 691.716 701.968 645.093C805.168 621.776 886.938 578.445 942.904 540.947C970.886 522.198 992.416 504.909 1006.95 492.311C1014.21 486.013 1019.72 480.887 1023.42 477.339C1025.27 475.565 1026.66 474.185 1027.59 473.251C1028.06 472.783 1028.4 472.427 1028.64 472.188C1028.75 472.069 1028.84 471.979 1028.9 471.919L1028.98 471.836C1028.98 471.833 1028.98 471.831 1029.64 472.735C1030.3 473.638 1030.3 473.641 1030.29 473.645L1030.27 473.663L1030.21 473.734C1030.15 473.797 1030.06 473.89 1029.94 474.012C1029.7 474.256 1029.35 474.618 1028.88 475.091C1027.93 476.037 1026.53 477.428 1024.67 479.214C1020.95 482.785 1015.41 487.934 1008.12 494.257C993.531 506.903 971.937 524.244 943.879 543.043C887.764 580.641 805.791 624.078 702.338 647.451C495.393 694.207 202.635 660.642 -140.851 339.805C-484.079 19.2109 -719.012 -127.47 -919.442 -181.45C-1119.85 -235.424 -1285.87 -196.751 -1491.44 -146.295L-1491.84 -148.647C-1286.3 -199.097 -1119.88 -237.892 -919.004 -183.792Z" fill="url(#paint10_linear_12_6)"/>
<path fill-rule="evenodd" clip-rule="evenodd" d="M-892.087 -202.099C-691.327 -145.031 -457.185 5.04809 -113.711 325.432C229.507 645.577 521.533 676.599 727.697 627.697C830.8 603.241 912.463 558.788 968.347 520.453C996.288 501.285 1017.78 483.648 1032.29 470.808C1039.54 464.388 1045.04 459.168 1048.73 455.555C1050.58 453.748 1051.97 452.344 1052.9 451.392C1053.1 451.186 1053.28 451.002 1053.43 450.839C1053.64 450.625 1053.81 450.449 1053.94 450.311L1054.06 450.181L1054.2 450.037L1054.26 449.969L1054.28 449.953C1054.28 449.949 1054.28 449.948 1054.95 450.843C1055.62 451.739 1055.61 451.742 1055.61 451.746L1055.59 451.765L1055.52 451.837C1055.46 451.901 1055.37 451.995 1055.26 452.119C1055.02 452.368 1054.66 452.736 1054.19 453.217C1053.26 454.18 1051.85 455.596 1050 457.415C1046.28 461.051 1040.75 466.296 1033.47 472.74C1018.91 485.629 997.355 503.318 969.339 522.537C913.308 560.973 831.442 605.536 728.085 630.052C521.331 679.093 228.72 647.883 -114.938 327.327C-458.339 7.01194 -692.208 -142.814 -892.548 -199.764C-1092.86 -256.706 -1259.76 -220.831 -1469.38 -169.407L-1469.78 -171.759C-1260.16 -223.182 -1092.87 -259.176 -892.087 -202.099Z" fill="url(#paint11_linear_12_6)"/>
<path fill-rule="evenodd" clip-rule="evenodd" d="M-865.103 -220.406C-664.408 -160.343 -431.302 -7.10157 -87.7295 312.953C255.587 632.77 547.459 661.46 753.446 610.31C856.46 584.73 938.029 539.173 993.841 500.014C1021.75 480.435 1043.21 462.457 1057.69 449.378C1064.94 442.839 1070.43 437.525 1074.11 433.849C1075.96 432.01 1077.34 430.581 1078.27 429.613C1078.73 429.129 1079.08 428.761 1079.31 428.514C1079.43 428.39 1079.52 428.297 1079.57 428.235L1079.65 428.149C1079.66 428.145 1079.66 428.144 1080.33 429.032C1081 429.921 1081 429.923 1081 429.928L1080.98 429.947L1080.91 430.02C1080.85 430.085 1080.76 430.181 1080.64 430.307C1080.41 430.56 1080.05 430.934 1079.58 431.424C1078.65 432.403 1077.25 433.844 1075.39 435.694C1071.69 439.394 1066.16 444.733 1058.9 451.296C1044.36 464.424 1022.83 482.455 994.85 502.086C938.892 541.348 857.12 587.017 753.851 612.661C547.271 663.958 254.806 635.081 -88.9558 314.849C-432.464 -5.1457 -665.303 -158.137 -865.587 -218.077C-1065.84 -278.007 -1233.65 -244.951 -1447.25 -192.518L-1447.65 -194.869C-1234.03 -247.307 -1065.83 -280.478 -865.103 -220.406Z" fill="url(#paint12_linear_12_6)"/>
<path fill-rule="evenodd" clip-rule="evenodd" d="M-838.178 -238.641C-637.59 -175.574 -405.553 -19.1702 -61.8173 300.556C281.667 620.046 573.402 646.383 779.211 592.965C882.137 566.25 963.607 519.579 1019.34 479.589C1047.21 459.594 1068.64 441.271 1083.1 427.952C1090.33 421.293 1095.82 415.884 1099.5 412.143C1101.34 410.273 1102.72 408.819 1103.65 407.835C1104.11 407.343 1104.46 406.968 1104.69 406.716C1104.8 406.591 1104.89 406.496 1104.95 406.433L1105.03 406.345C1105.03 406.342 1105.03 406.34 1105.71 407.221C1106.39 408.103 1106.39 408.105 1106.38 408.11L1106.37 408.129L1106.3 408.204C1106.24 408.269 1106.15 408.367 1106.03 408.495C1105.9 408.64 1105.73 408.823 1105.52 409.045C1105.36 409.218 1105.18 409.413 1104.97 409.631C1104.04 410.627 1102.64 412.092 1100.79 413.974C1097.09 417.739 1091.58 423.172 1084.32 429.856C1069.81 443.225 1048.31 461.601 1020.37 481.649C964.489 521.743 882.815 568.53 779.633 595.311C573.227 648.884 280.892 622.362 -63.0424 302.453C-406.724 -17.2224 -638.5 -173.379 -838.685 -236.319C-1038.83 -299.248 -1207.5 -269.03 -1425.12 -215.628L-1425.52 -217.98C-1207.87 -271.391 -1038.8 -301.72 -838.178 -238.641Z" fill="url(#paint13_linear_12_6)"/>
<path fill-rule="evenodd" clip-rule="evenodd" d="M-811.195 -256.948C-610.688 -190.907 -379.704 -31.3606 -35.8375 288.077C307.779 607.282 599.34 631.266 804.943 575.57C907.767 547.715 989.127 499.922 1044.78 459.094C1072.6 438.681 1094 420.011 1108.44 406.449C1115.65 399.668 1121.13 394.165 1124.8 390.359C1126.64 388.456 1128.02 386.978 1128.94 385.976C1129.4 385.476 1129.75 385.094 1129.98 384.839C1130.1 384.711 1130.18 384.615 1130.24 384.551L1130.3 384.479L1130.32 384.462C1130.32 384.458 1130.32 384.457 1131.01 385.33C1131.7 386.204 1131.69 386.206 1131.69 386.211L1131.67 386.231L1131.6 386.306L1131.46 386.464L1131.34 386.603C1131.1 386.864 1130.75 387.251 1130.28 387.758C1129.35 388.77 1127.95 390.261 1126.11 392.175C1122.41 396.005 1116.91 401.533 1109.67 408.339C1095.18 421.951 1073.72 440.675 1045.82 461.143C990.027 502.075 908.464 549.987 805.384 577.911C599.178 633.771 307.01 609.603 -37.0616 289.975C-380.884 -29.421 -611.612 -188.722 -811.724 -254.633C-1011.79 -320.529 -1181.36 -293.11 -1402.99 -238.739L-1403.39 -241.091C-1181.7 -295.475 -1011.74 -323.002 -811.195 -256.948Z" fill="url(#paint14_linear_12_6)"/>
<path fill-rule="evenodd" clip-rule="evenodd" d="M-784.193 -275.214C-583.752 -206.16 -353.821 -43.43 -9.85718 275.678C333.858 594.557 625.266 616.189 830.691 558.225C933.427 529.236 1014.69 480.329 1070.27 438.67C1098.06 417.841 1119.43 398.827 1133.84 385.024C1141.05 378.123 1146.52 372.525 1150.18 368.655C1152.02 366.72 1153.4 365.217 1154.32 364.199C1154.78 363.69 1155.13 363.302 1155.36 363.043L1155.61 362.75L1155.68 362.677L1155.69 362.659C1155.7 362.656 1155.7 362.654 1156.39 363.52C1157.08 364.386 1157.08 364.389 1157.08 364.394L1157.06 364.414L1156.99 364.491L1156.84 364.666L1156.73 364.792C1156.55 364.994 1156.3 365.271 1155.99 365.619L1155.67 365.966C1154.74 366.995 1153.35 368.51 1151.5 370.457C1147.82 374.351 1142.32 379.974 1135.09 386.9C1120.62 400.753 1099.2 419.823 1071.33 440.706C1015.61 482.471 934.142 531.5 831.149 560.561C625.118 618.697 333.096 596.883 -11.0803 277.577C-355.009 -41.4986 -584.689 -203.985 -784.745 -272.906C-984.751 -341.811 -1155.24 -317.23 -1380.92 -261.85L-1381.32 -264.202C-1155.57 -319.6 -984.682 -344.284 -784.193 -275.214Z" fill="url(#paint15_linear_12_6)"/>
<path fill-rule="evenodd" clip-rule="evenodd" d="M-757.268 -293.52C-556.935 -221.492 -328.073 -55.6201 16.0554 263.2C359.937 581.792 651.208 601.093 856.456 540.87C959.104 510.752 1040.27 460.732 1095.78 418.244C1123.53 397 1144.86 377.641 1159.25 363.598C1166.45 356.576 1171.91 350.884 1175.57 346.95C1177.4 344.982 1178.77 343.455 1179.69 342.42C1180.15 341.903 1180.5 341.509 1180.73 341.245L1180.98 340.961L1180.99 340.948L1181.05 340.874L1181.07 340.856C1181.07 340.852 1181.07 340.851 1181.77 341.709C1182.47 342.568 1182.47 342.571 1182.46 342.576L1182.38 342.674C1182.32 342.743 1182.23 342.845 1182.11 342.98C1181.88 343.25 1181.53 343.65 1181.06 344.173C1180.13 345.219 1178.74 346.758 1176.9 348.737C1173.22 352.696 1167.74 358.413 1160.51 365.46C1146.07 379.554 1124.68 398.969 1096.85 420.267C1041.21 462.864 959.836 513.008 856.931 543.202C651.073 603.603 359.181 584.124 14.8333 265.1C-329.27 -53.6969 -557.885 -219.328 -757.842 -291.22C-957.745 -363.093 -1129.1 -341.31 -1358.79 -284.962L-1359.19 -287.314C-1129.41 -343.684 -957.655 -365.566 -757.268 -293.52Z" fill="url(#paint16_linear_12_6)"/>
<path fill-rule="evenodd" clip-rule="evenodd" d="M-730.285 -311.816C-530.033 -236.825 -302.223 -67.8105 42.0359 250.721C386.05 569.027 677.15 585.976 882.195 523.475C984.741 492.217 1065.8 441.075 1121.22 397.749C1148.93 376.087 1170.23 356.381 1184.59 342.095C1191.78 334.952 1197.23 329.164 1200.88 325.165C1202.71 323.165 1204.08 321.613 1205 320.562C1205.46 320.036 1205.8 319.636 1206.03 319.368L1206.29 319.066L1206.36 318.99L1206.37 318.972C1206.37 318.968 1206.38 318.967 1207.08 319.818C1207.79 320.669 1207.78 320.672 1207.78 320.677L1207.76 320.697L1207.69 320.777C1207.64 320.847 1207.55 320.951 1207.43 321.088C1207.2 321.362 1206.84 321.768 1206.38 322.299C1205.45 323.362 1204.06 324.926 1202.23 326.938C1198.55 330.961 1193.08 336.774 1185.87 343.943C1171.45 358.28 1150.09 378.042 1122.31 399.761C1066.75 443.196 985.492 494.465 882.687 525.801C677.029 588.489 385.301 571.365 40.8147 252.622C-303.429 -65.8958 -530.997 -234.672 -730.88 -309.524C-930.705 -384.355 -1102.95 -365.35 -1336.66 -307.991L-1337.06 -310.343C-1103.24 -367.728 -930.595 -386.828 -730.285 -311.816Z" fill="url(#paint17_linear_12_6)"/>
<path fill-rule="evenodd" clip-rule="evenodd" d="M-703.369 -330.05C-503.217 -252.057 -276.475 -79.8789 67.9474 238.322C412.129 556.302 703.089 570.899 907.954 506.13C1010.41 473.738 1091.37 421.482 1146.72 377.324C1174.39 355.246 1195.65 335.195 1210 320.668C1217.17 313.405 1222.61 307.523 1226.25 303.46C1228.08 301.428 1229.45 299.851 1230.37 298.783C1230.83 298.249 1231.17 297.843 1231.4 297.571C1231.51 297.434 1231.6 297.332 1231.66 297.264L1231.72 297.187L1231.73 297.168C1231.74 297.166 1231.74 297.164 1231.92 297.38C1232.03 297.504 1232.19 297.699 1232.45 298.007C1233.16 298.851 1233.16 298.854 1233.15 298.859L1233.07 298.96C1233.01 299.031 1232.92 299.137 1232.81 299.276C1232.67 299.443 1232.48 299.658 1232.26 299.921C1232.11 300.095 1231.94 300.291 1231.76 300.506C1230.83 301.586 1229.45 303.175 1227.61 305.219C1223.95 309.306 1218.48 315.214 1211.28 322.503C1196.89 337.081 1175.57 357.189 1147.82 379.323C1092.34 423.591 1011.18 475.977 908.463 508.451C702.982 573.415 411.386 558.646 66.7274 240.225C-277.69 -77.9725 -504.193 -249.913 -703.987 -327.767C-903.717 -405.596 -1076.84 -389.429 -1314.6 -331.102L-1315 -333.454C-1077.11 -391.812 -903.586 -408.069 -703.369 -330.05Z" fill="url(#paint18_linear_12_6)"/>
<path fill-rule="evenodd" clip-rule="evenodd" d="M-676.36 -348.387C-476.281 -267.41 -250.591 -92.0692 93.9277 225.844C438.207 543.537 729.014 555.803 933.702 488.775C1036.07 455.253 1116.94 401.885 1172.21 356.898C1199.85 334.405 1221.08 314.009 1235.4 299.242C1242.56 291.858 1248 285.882 1251.64 281.754C1253.46 279.69 1254.83 278.089 1255.74 277.004C1256.2 276.462 1256.54 276.049 1256.77 275.773L1257.03 275.461L1257.09 275.383L1257.11 275.365C1257.11 275.361 1257.11 275.359 1257.83 276.196C1258.55 277.033 1258.54 277.036 1258.54 277.041L1258.52 277.062L1258.46 277.144C1258.4 277.216 1258.31 277.323 1258.19 277.464C1257.96 277.746 1257.61 278.165 1257.15 278.713C1256.22 279.809 1254.84 281.423 1253.01 283.499C1249.35 287.651 1243.89 293.653 1236.71 301.063C1222.33 315.882 1201.04 336.334 1173.33 358.884C1117.92 403.983 1036.86 457.484 934.228 491.091C728.921 558.321 437.471 545.886 92.7087 227.747C-251.816 -90.1715 -477.27 -265.277 -676.999 -346.112C-876.659 -426.919 -1050.69 -413.55 -1292.47 -354.214L-1292.87 -356.566C-1050.95 -415.937 -876.509 -429.391 -676.36 -348.387Z" fill="url(#paint19_linear_12_6)"/>
<path fill-rule="evenodd" clip-rule="evenodd" d="M-649.377 -366.693C-449.379 -282.743 -224.74 -104.26 119.908 213.365C464.32 530.773 754.955 540.686 959.44 471.38C1061.71 436.719 1142.47 382.229 1197.66 336.404C1225.25 313.492 1246.45 292.749 1260.75 277.739C1267.89 270.234 1273.32 264.162 1276.95 259.97C1278.77 257.873 1280.14 256.247 1281.05 255.146C1281.51 254.595 1281.85 254.176 1282.08 253.895L1282.22 253.721L1282.33 253.579L1282.4 253.5L1282.41 253.481C1282.42 253.477 1282.42 253.475 1283.14 254.305C1283.86 255.134 1283.86 255.137 1283.86 255.142L1283.84 255.164L1283.77 255.247C1283.71 255.32 1283.63 255.429 1283.51 255.572C1283.28 255.859 1282.93 256.284 1282.47 256.84C1281.54 257.953 1280.16 259.591 1278.34 261.7C1274.68 265.917 1269.24 272.014 1262.06 279.546C1247.72 294.608 1226.46 315.408 1198.79 338.378C1143.47 384.315 1062.51 438.941 959.983 473.69C754.875 543.207 463.59 533.127 118.69 215.269C-225.975 -102.371 -450.381 -280.621 -650.037 -364.427C-849.619 -448.202 -1024.54 -437.631 -1270.34 -377.325L-1270.74 -379.676C-1024.79 -440.021 -849.449 -450.673 -649.377 -366.693Z" fill="url(#paint20_linear_12_6)"/>
<path fill-rule="evenodd" clip-rule="evenodd" d="M-622.478 -384.927C-422.58 -297.975 -198.992 -116.328 145.821 200.966C490.398 518.048 780.893 525.61 985.199 454.036C1087.38 418.24 1168.04 362.636 1223.15 315.98C1250.71 292.652 1271.87 271.565 1286.15 256.314C1293.28 248.688 1298.7 242.522 1302.32 238.265C1304.14 236.137 1305.5 234.486 1306.42 233.368C1306.87 232.809 1307.21 232.384 1307.44 232.099C1307.56 231.957 1307.64 231.849 1307.7 231.778L1307.76 231.698L1307.78 231.678C1307.78 231.676 1307.78 231.674 1307.93 231.836C1308.03 231.952 1308.21 232.152 1308.51 232.495C1309.24 233.317 1309.24 233.32 1309.23 233.325L1309.21 233.347L1309.15 233.431C1309.09 233.506 1309 233.616 1308.89 233.761C1308.65 234.052 1308.31 234.484 1307.84 235.048C1306.92 236.178 1305.55 237.841 1303.72 239.982C1300.07 244.263 1294.64 250.455 1287.48 258.107C1273.15 273.41 1251.93 294.555 1224.3 317.941C1169.06 364.711 1088.2 420.453 985.759 456.34C780.828 528.133 489.675 520.407 144.604 202.871C-200.236 -114.448 -423.593 -295.862 -623.159 -382.67C-822.646 -469.443 -998.429 -461.71 -1248.21 -400.435L-1248.61 -402.787C-998.657 -464.104 -822.456 -471.914 -622.478 -384.927Z" fill="url(#paint21_linear_12_6)"/>
<path fill-rule="evenodd" clip-rule="evenodd" d="M-595.504 -403.233C-395.679 -313.288 -173.142 -128.478 171.8 188.488C516.514 505.241 806.856 510.472 1010.98 436.65C1113.06 399.73 1193.62 343.021 1248.66 295.542C1276.17 271.803 1297.31 250.374 1311.56 234.884C1318.68 227.139 1324.09 220.88 1327.71 216.559C1329.52 214.399 1330.88 212.723 1331.79 211.589C1332.06 211.261 1332.28 210.978 1332.47 210.742C1332.61 210.57 1332.72 210.423 1332.82 210.301L1332.97 210.104L1333.07 209.975L1333.14 209.894L1333.15 209.874C1333.15 209.873 1333.15 209.872 1333.2 209.919C1333.27 209.993 1333.44 210.187 1333.89 210.684C1334.29 211.126 1334.47 211.329 1334.55 211.424C1334.62 211.503 1334.62 211.505 1334.62 211.507L1334.6 211.529L1334.53 211.615C1334.48 211.69 1334.39 211.802 1334.27 211.95C1334.04 212.245 1333.69 212.682 1333.23 213.255C1332.31 214.401 1330.94 216.089 1329.12 218.261C1325.48 222.607 1320.05 228.892 1312.9 236.663C1298.6 252.205 1277.41 273.693 1249.82 297.491C1194.65 345.085 1113.9 401.934 1011.55 438.949C806.805 512.997 515.798 507.606 170.584 190.394C-174.396 -126.607 -396.704 -311.186 -596.206 -400.985C-795.623 -490.746 -972.316 -485.832 -1226.15 -423.547L-1226.55 -425.899C-972.529 -488.229 -795.413 -493.216 -595.504 -403.233Z" fill="url(#paint22_linear_12_6)"/>
<path fill-rule="evenodd" clip-rule="evenodd" d="M-568.495 -421.538C-368.744 -328.621 -147.258 -140.668 197.781 176.009C542.591 492.476 832.762 495.355 1036.69 419.256C1138.68 381.196 1219.13 323.365 1274.09 275.047C1301.57 250.89 1322.67 229.113 1336.9 213.381C1344.01 205.515 1349.41 199.16 1353.02 194.774C1354.83 192.582 1356.19 190.881 1357.1 189.73C1357.55 189.155 1357.9 188.717 1358.12 188.424C1358.24 188.277 1358.32 188.166 1358.38 188.093L1358.44 188.01L1358.46 187.99C1358.46 187.987 1358.46 187.985 1358.71 188.256C1358.82 188.375 1358.97 188.546 1359.2 188.792C1359.61 189.242 1359.79 189.442 1359.87 189.533C1359.94 189.605 1359.94 189.607 1359.93 189.609L1359.92 189.631L1359.85 189.718L1359.59 190.058C1359.47 190.211 1359.32 190.401 1359.14 190.629C1358.97 190.847 1358.78 191.098 1358.55 191.382C1357.63 192.545 1356.26 194.257 1354.44 196.462C1350.81 200.873 1345.39 207.253 1338.25 215.146C1323.98 230.931 1302.82 252.766 1275.27 276.984C1220.18 325.417 1139.53 383.391 1037.28 421.548C832.725 497.883 541.882 494.847 196.566 177.916C-148.522 -138.806 -369.78 -326.529 -569.218 -419.3C-768.566 -512.029 -946.168 -509.912 -1204.02 -446.658L-1204.42 -449.01C-946.367 -512.313 -768.337 -514.497 -568.495 -421.538Z" fill="url(#paint23_linear_12_6)"/>
<path fill-rule="evenodd" clip-rule="evenodd" d="M-541.572 -439.772C-341.929 -343.853 -121.51 -152.736 223.692 163.612C568.669 479.752 858.7 480.279 1062.45 401.911C1164.35 362.717 1244.71 303.771 1299.59 254.622C1327.03 230.049 1348.09 207.928 1362.3 191.954C1369.4 183.968 1374.79 177.519 1378.4 173.069C1380.2 170.844 1381.56 169.119 1382.47 167.952C1382.92 167.368 1383.26 166.924 1383.49 166.626C1383.6 166.477 1383.69 166.365 1383.74 166.29L1383.82 166.186C1383.82 166.182 1383.83 166.18 1384.57 166.982C1385.04 167.492 1385.22 167.678 1385.28 167.748C1385.31 167.788 1385.31 167.789 1385.31 167.791L1385.29 167.814L1385.23 167.902L1385.11 168.059L1384.96 168.246C1384.73 168.549 1384.39 169 1383.93 169.589C1383.01 170.769 1381.64 172.506 1379.83 174.743C1376.2 179.218 1370.79 185.693 1363.67 193.706C1349.41 209.732 1328.29 231.913 1300.78 256.546C1245.77 305.811 1165.22 364.902 1063.06 404.197C858.678 482.809 567.967 482.128 222.478 165.519C-122.784 -150.883 -342.976 -341.77 -542.316 -437.544C-741.56 -533.271 -920.02 -533.992 -1181.89 -469.769L-1182.29 -472.12C-920.205 -536.396 -741.311 -535.737 -541.572 -439.772Z" fill="url(#paint24_linear_12_6)"/>
<path fill-rule="evenodd" clip-rule="evenodd" d="M-514.589 -458.098C-315.028 -359.207 -95.6593 -164.926 249.673 151.132C594.781 466.986 884.659 465.183 1088.22 384.557C1190.03 344.233 1270.29 284.175 1325.09 234.196C1352.49 209.208 1373.53 186.742 1387.71 170.528C1394.8 162.421 1400.18 155.877 1403.78 151.363C1405.58 149.106 1406.94 147.357 1407.84 146.173C1408.3 145.581 1408.64 145.13 1408.86 144.828C1408.98 144.677 1409.06 144.564 1409.12 144.488L1409.18 144.403L1409.2 144.382C1409.2 144.378 1409.2 144.376 1409.95 145.17C1410.51 145.763 1410.65 145.915 1410.68 145.956C1410.7 145.971 1410.69 145.972 1410.69 145.973L1410.68 145.996L1410.61 146.085L1410.35 146.434C1410.12 146.742 1409.77 147.198 1409.32 147.796C1408.4 148.992 1407.03 150.754 1405.22 153.024C1401.6 157.563 1396.2 164.132 1389.09 172.266C1374.86 188.533 1353.77 211.058 1326.3 236.107C1271.37 286.203 1190.92 346.409 1088.85 386.836C884.65 467.714 594.086 469.368 248.46 153.04C-96.944 -163.083 -316.086 -357.134 -515.353 -455.879C-714.519 -554.574 -893.872 -558.072 -1159.76 -492.799L-1160.16 -495.15C-894.043 -560.48 -714.251 -557.038 -514.589 -458.098Z" fill="url(#paint25_linear_12_6)"/>
<path fill-rule="evenodd" clip-rule="evenodd" d="M-487.674 -476.402C-288.212 -374.54 -69.9093 -177.115 275.586 138.653C620.859 454.221 910.583 450.066 1113.95 367.162C1215.66 325.698 1295.81 264.519 1350.54 213.702C1377.9 188.295 1398.9 165.482 1413.05 149.025C1420.13 140.796 1425.5 134.158 1429.09 129.578C1430.89 127.289 1432.25 125.514 1433.15 124.314C1433.6 123.713 1433.94 123.256 1434.17 122.95L1434.42 122.605L1434.49 122.519L1434.5 122.498C1434.5 122.494 1434.51 122.492 1435.26 123.279C1436.02 124.066 1436.01 124.069 1436.01 124.075L1435.99 124.098L1435.93 124.188C1435.87 124.268 1435.78 124.386 1435.67 124.542C1435.44 124.854 1435.09 125.317 1434.64 125.923C1433.72 127.136 1432.36 128.923 1430.55 131.225C1426.94 135.829 1421.55 142.494 1414.45 150.749C1400.24 167.259 1379.19 190.132 1351.76 215.6C1296.91 266.535 1216.57 327.865 1114.59 369.435C910.588 452.599 620.171 456.609 274.375 140.563C-71.205 -175.282 -289.28 -372.477 -488.457 -474.194C-687.528 -575.857 -867.756 -582.152 -1137.7 -515.909L-1138.1 -518.261C-867.914 -584.564 -687.241 -578.319 -487.674 -476.402Z" fill="url(#paint26_linear_12_6)"/>
<path fill-rule="evenodd" clip-rule="evenodd" d="M272.501 99.7233C282.088 108.476 291.775 117.32 301.566 126.256C646.941 441.497 936.51 434.991 1139.7 349.819C1241.33 307.221 1321.38 244.926 1376.03 193.278C1403.36 167.455 1424.33 144.297 1438.46 127.6C1445.53 119.251 1450.89 112.518 1454.48 107.874C1456.27 105.552 1457.63 103.753 1458.53 102.536C1458.79 102.181 1459.02 101.876 1459.2 101.621C1459.34 101.439 1459.45 101.283 1459.54 101.154L1459.71 100.919L1459.8 100.804L1459.88 100.695C1459.88 100.691 1459.88 100.689 1460.64 101.469C1461.4 102.25 1461.4 102.253 1461.39 102.259L1461.38 102.282L1461.31 102.374C1461.25 102.454 1461.17 102.574 1461.05 102.732C1460.82 103.048 1460.48 103.517 1460.02 104.132C1459.11 105.361 1457.75 107.173 1455.94 109.507C1452.34 114.175 1446.96 120.935 1439.87 129.31C1425.68 146.062 1404.66 169.279 1377.27 195.164C1322.49 246.931 1242.24 309.378 1140.36 352.085C936.53 437.525 646.26 443.891 300.355 128.166C290.637 119.297 281.021 110.518 271.505 101.83C-57.5193 -198.549 -267.953 -390.662 -461.469 -492.438C-660.471 -597.099 -841.608 -606.233 -1115.57 -539.021L-1115.97 -541.372C-841.752 -608.647 -660.165 -599.559 -460.666 -494.636C-266.927 -392.743 -56.3201 -200.471 272.501 99.7233Z" fill="url(#paint27_linear_12_6)"/>
<path fill-rule="evenodd" clip-rule="evenodd" d="M248.322 41.4776C273.965 64.8933 300.354 88.9906 327.545 113.777C673.052 428.732 962.466 419.895 1165.47 332.465C1267 288.737 1346.96 225.33 1401.53 172.852C1428.82 146.614 1449.75 123.111 1463.86 106.173C1470.92 97.704 1476.27 90.8762 1479.85 86.1685C1481.64 83.8147 1482.99 81.9909 1483.9 80.757C1484.35 80.14 1484.69 79.6706 1484.91 79.356L1485.16 79.0013L1485.23 78.913L1485.24 78.8913C1485.24 78.8867 1485.25 78.8848 1486.01 79.6584C1486.77 80.432 1486.77 80.4351 1486.77 80.4407L1486.75 80.4645L1486.69 80.5573C1486.63 80.639 1486.54 80.7604 1486.43 80.9206C1486.2 81.241 1485.86 81.7164 1485.4 82.3393C1484.49 83.5852 1483.13 85.4212 1481.33 87.7876C1477.73 92.5202 1472.36 99.3741 1465.28 107.87C1451.12 124.862 1430.13 148.425 1402.78 174.725C1348.08 227.323 1267.94 290.884 1166.14 334.724C962.5 422.43 672.378 431.131 326.335 115.688C299.177 90.9319 272.82 66.8644 247.209 43.4783C-53.3092 -230.934 -251.096 -411.539 -434.506 -510.784C-633.43 -618.423 -815.459 -630.354 -1093.44 -562.132L-1093.84 -564.483C-815.591 -632.772 -633.106 -620.881 -433.684 -512.972C-250.055 -413.608 -52.0786 -232.829 248.322 41.4776Z" fill="url(#paint28_linear_12_6)"/>
<path fill-rule="evenodd" clip-rule="evenodd" d="M230.03 -11.3944C269.291 24.5088 310.359 62.0653 353.458 101.298C699.13 415.966 988.389 404.779 1191.2 315.071C1292.63 270.203 1372.48 205.674 1426.97 152.358C1454.22 125.701 1475.12 101.851 1489.21 84.6696C1496.25 76.0791 1501.59 69.1561 1505.17 64.3835C1506.96 61.9972 1508.3 60.1486 1509.2 58.8979C1509.53 58.4431 1509.8 58.0673 1510.01 57.7736L1510.22 57.478L1510.47 57.1185L1510.53 57.0289L1510.55 57.0069C1510.55 57.0034 1510.55 57.0015 1510.88 57.3301L1511.32 57.767C1512.09 58.5338 1512.09 58.5369 1512.08 58.5426L1512.07 58.5667L1512 58.6607C1511.94 58.7434 1511.86 58.8665 1511.74 59.0288C1511.51 59.3534 1511.17 59.8352 1510.72 60.4665C1509.81 61.7291 1508.45 63.59 1506.66 65.9888C1503.06 70.7863 1497.7 77.7356 1490.63 86.3533C1476.5 103.588 1455.55 127.499 1428.24 154.218C1373.62 207.654 1293.59 272.34 1191.89 317.323C988.438 407.316 698.464 418.372 352.249 103.211C309.151 63.9777 268.086 26.4253 228.833 -9.47047C-47.0449 -261.755 -233.44 -432.209 -407.611 -529.099C-606.44 -639.706 -789.344 -654.434 -1071.37 -585.243L-1071.77 -587.595C-789.463 -656.855 -606.097 -642.161 -406.77 -531.277C-232.387 -434.268 -45.792 -263.63 230.03 -11.3944Z" fill="url(#paint29_linear_12_6)"/>
<path fill-rule="evenodd" clip-rule="evenodd" d="M217.037 -59.5561C267.874 -12.9415 321.828 36.5311 379.438 88.8996C725.242 403.241 1014.35 389.703 1216.97 297.727C1318.32 251.724 1398.07 186.08 1452.48 131.933C1479.69 104.86 1500.55 80.6654 1514.62 63.2431C1521.65 54.5322 1526.98 47.5147 1530.55 42.6778C1532.34 40.2593 1533.68 38.386 1534.58 37.1187C1535.03 36.4851 1535.37 36.0029 1535.59 35.68C1535.7 35.5184 1535.79 35.3968 1535.84 35.3157L1535.91 35.2249L1535.92 35.2026C1535.92 35.198 1535.93 35.1959 1536.7 35.956C1537.47 36.7161 1537.47 36.7191 1537.47 36.7249L1537.45 36.7493L1537.39 36.8445C1537.33 36.9283 1537.24 37.053 1537.13 37.2174C1537 37.4052 1536.83 37.6448 1536.63 37.935C1536.47 38.153 1536.3 38.3995 1536.11 38.6739C1535.2 39.9531 1533.84 41.8387 1532.05 44.2696C1528.46 49.1315 1523.11 56.1753 1516.06 64.9135C1501.95 82.3896 1481.03 106.645 1453.76 133.78C1399.22 188.049 1319.28 253.852 1217.68 299.972C1014.41 392.241 724.583 405.653 378.23 90.8131C320.59 38.4174 266.618 -11.0716 215.772 -57.694C-38.7277 -291.053 -214.903 -452.594 -380.673 -547.343C-579.434 -660.949 -763.23 -678.515 -1049.24 -608.354L-1049.64 -610.705C-763.336 -680.939 -579.072 -663.401 -379.813 -549.511C-213.838 -454.644 -37.4557 -292.911 217.037 -59.5561Z" fill="url(#paint30_linear_12_6)"/>
<path fill-rule="evenodd" clip-rule="evenodd" d="M208.329 -104.026C269.099 -48.09 334.431 12.0456 405.351 76.4206C751.29 390.434 1040.26 374.566 1242.71 280.342C1343.97 233.215 1423.62 166.467 1477.97 111.495C1505.14 84.011 1525.98 59.4747 1540.02 41.814C1547.04 32.9838 1552.36 25.8727 1555.93 20.9721C1557.71 18.5218 1559.05 16.624 1559.95 15.3403C1560.4 14.6984 1560.73 14.2101 1560.96 13.8829C1561.07 13.7193 1561.15 13.596 1561.21 13.5139L1561.27 13.4219L1561.29 13.3994C1561.29 13.3947 1561.29 13.3925 1562.07 14.146C1562.85 14.8995 1562.85 14.9027 1562.84 14.9085L1562.83 14.9332L1562.76 15.0295C1562.7 15.1144 1562.62 15.2407 1562.5 15.4072C1562.38 15.5875 1562.22 15.8152 1562.03 16.0889C1561.87 16.3206 1561.69 16.5853 1561.48 16.8823C1560.58 18.1779 1559.22 20.0879 1557.43 22.5507C1553.85 27.4763 1548.51 34.6136 1541.47 43.4712C1527.38 61.1859 1506.49 85.7831 1479.26 113.331C1424.79 168.423 1344.95 235.332 1243.43 282.58C1040.33 377.104 750.638 392.852 404.144 78.335C333.169 13.9095 267.802 -46.2578 207.013 -102.21C-28.787 -319.252 -195.689 -472.877 -353.743 -565.629C-552.409 -682.213 -737.08 -702.596 -1027.11 -631.465L-1027.51 -633.817C-737.174 -705.023 -552.029 -684.662 -352.865 -567.785C-194.614 -474.918 -27.5009 -321.098 208.329 -104.026Z" fill="url(#paint31_linear_12_6)"/>
<path fill-rule="evenodd" clip-rule="evenodd" d="M203.641 -145.14C272.927 -81.0492 348.271 -11.3552 431.331 63.9421C777.402 377.669 1066.2 359.45 1268.45 262.948C1369.61 214.681 1449.15 146.811 1503.41 91.0016C1530.54 63.0984 1551.35 38.2145 1565.36 20.3108C1572.37 11.3591 1577.68 4.15279 1581.24 -0.812777C1583.02 -3.29556 1584.36 -5.21817 1585.26 -6.51864C1585.7 -7.16891 1586.04 -7.66359 1586.26 -7.99507C1586.38 -8.16076 1586.46 -8.28566 1586.52 -8.3688L1586.58 -8.46198L1586.59 -8.48484C1586.6 -8.48967 1586.6 -8.4918 1587.38 -7.74505C1588.16 -6.9983 1588.16 -6.99508 1588.16 -6.98922L1588.14 -6.96424L1588.08 -6.86667C1588.02 -6.78067 1587.93 -6.65291 1587.82 -6.48428C1587.59 -6.14695 1587.25 -5.64641 1586.8 -4.99013C1585.9 -3.67772 1584.55 -1.74295 1582.76 0.752358C1579.18 5.7429 1573.85 12.9755 1566.82 21.9546C1552.76 39.9123 1531.91 64.8574 1504.72 92.8242C1450.34 148.755 1370.6 216.789 1269.19 265.179C1066.29 361.989 776.757 380.093 430.126 65.8575C347.021 -9.48079 271.677 -79.1752 202.399 -143.258C127.282 -212.742 59.2972 -275.629 -3.71588 -331.961C-124.822 -440.225 -227.442 -524.162 -326.78 -583.964C-525.368 -703.516 -710.931 -726.676 -1004.98 -654.495L-1005.38 -656.846C-711.014 -729.106 -524.97 -705.962 -325.883 -586.11C-226.383 -526.21 -123.648 -442.169 -2.52118 -333.886C60.4853 -277.56 128.501 -214.645 203.641 -145.14Z" fill="url(#paint32_linear_12_6)"/>
<path fill-rule="evenodd" clip-rule="evenodd" d="M220.963 -165.981C292.557 -99.3856 370.695 -26.8655 457.31 51.5437C803.513 364.944 1092.15 344.375 1294.22 245.604C1395.29 196.203 1474.74 127.217 1528.92 70.5765C1556.01 42.2576 1576.78 17.0289 1590.77 -1.11575C1597.77 -10.1879 1603.08 -17.4886 1606.63 -22.5186C1608.4 -25.0336 1609.74 -26.9808 1610.64 -28.2979C1611.08 -28.9565 1611.42 -29.4575 1611.64 -29.7931L1611.75 -29.9513L1611.89 -30.1716L1611.95 -30.266L1611.97 -30.2893C1611.97 -30.2941 1611.97 -30.2963 1612.76 -29.5561C1613.55 -28.8158 1613.55 -28.8126 1613.54 -28.8067L1613.46 -28.6827C1613.4 -28.5956 1613.32 -28.4662 1613.2 -28.2954C1612.98 -27.954 1612.64 -27.4471 1612.19 -26.7826C1611.28 -25.4536 1609.94 -23.4941 1608.15 -20.9667C1604.58 -15.9117 1599.26 -8.58468 1592.24 0.51487C1578.21 18.7136 1557.38 44.0037 1530.23 72.3866C1475.93 129.149 1396.3 198.3 1294.98 247.827C1092.26 346.914 802.876 367.374 456.106 53.46C369.479 -24.9592 291.333 -97.4875 219.737 -164.083C213.377 -169.999 207.069 -175.868 200.812 -181.69C136.622 -241.411 77.7318 -296.201 22.6747 -346.036C-98.1792 -455.428 -200.52 -540.906 -299.825 -602.209C-498.343 -724.759 -684.815 -750.756 -982.92 -677.606L-983.321 -679.957C-684.886 -753.189 -497.928 -727.202 -298.91 -604.343C-199.446 -542.942 -96.9915 -457.359 23.879 -347.952C78.9454 -298.109 137.844 -243.311 202.028 -183.595C208.289 -177.771 214.6 -171.899 220.963 -165.981Z" fill="url(#paint33_linear_12_6)"/>
<path fill-rule="evenodd" clip-rule="evenodd" d="M203.285 -219.707C286.43 -141.836 378.577 -55.5346 483.223 39.0648C829.591 352.179 1118.09 329.279 1319.98 228.25C1420.96 177.719 1500.31 107.621 1554.42 50.1502C1581.47 21.4161 1602.21 -4.15717 1616.18 -22.5426C1623.16 -31.7351 1628.46 -39.1302 1632 -44.2245C1633.78 -46.7717 1635.11 -48.7436 1636 -50.0772C1636.45 -50.7441 1636.78 -51.2514 1637.01 -51.5913C1637.12 -51.7612 1637.2 -51.8893 1637.26 -51.9746L1637.32 -52.0702L1637.33 -52.0936C1637.34 -52.0986 1637.34 -52.1008 1638.13 -51.3671C1638.71 -50.8259 1638.87 -50.6822 1638.9 -50.6416C1638.92 -50.6272 1638.92 -50.6258 1638.92 -50.6242L1638.83 -50.4986L1638.73 -50.344L1638.58 -50.1067C1638.35 -49.761 1638.01 -49.2478 1637.56 -48.575C1636.66 -47.2294 1635.32 -45.2453 1633.54 -42.6857C1629.97 -37.5664 1624.66 -30.1449 1617.66 -20.925C1603.64 -2.48545 1582.85 23.1493 1555.74 51.9477C1501.52 109.541 1421.99 179.806 1320.75 230.466C1118.21 331.819 828.961 354.615 482.02 40.9822C377.376 -53.6152 285.183 -139.96 202.016 -217.85C147.44 -268.964 96.7507 -316.438 48.9811 -360.214C-71.6165 -470.729 -173.666 -557.736 -272.92 -620.524C-471.336 -746.042 -658.665 -774.837 -960.79 -700.717L-961.191 -703.068C-658.725 -777.272 -470.903 -748.482 -271.987 -622.648C-172.576 -559.76 -70.4151 -472.648 50.1948 -362.121C98.0054 -318.308 148.706 -270.824 203.285 -219.707Z" fill="url(#paint34_linear_12_6)"/>
<path fill-rule="evenodd" clip-rule="evenodd" d="M207.325 -253.627C296.056 -169.9 395.156 -76.3882 509.204 26.586C855.667 339.413 1144 314.164 1345.69 210.857C1446.58 159.185 1525.82 87.9653 1579.85 29.6561C1606.87 0.50307 1627.57 -25.4178 1641.52 -44.0462C1648.49 -53.3602 1653.78 -60.8506 1657.32 -66.0099C1659.09 -68.5895 1660.42 -70.5862 1661.31 -71.9367C1661.76 -72.6119 1662.09 -73.1256 1662.31 -73.4697C1662.42 -73.6418 1662.51 -73.7715 1662.56 -73.8578L1662.63 -73.9547L1662.64 -73.9784C1662.64 -73.9813 1662.64 -73.9833 1662.81 -73.8323C1662.93 -73.729 1663.12 -73.554 1663.44 -73.2585C1664.24 -72.5313 1664.23 -72.528 1664.23 -72.5219L1664.21 -72.496L1664.15 -72.3949C1664.09 -72.3057 1664.01 -72.1731 1663.89 -71.9981C1663.67 -71.6482 1663.33 -71.1287 1662.88 -70.4475C1661.98 -69.0851 1660.64 -67.0762 1658.86 -64.4841C1655.31 -59.2999 1650 -51.7831 1643.01 -42.4417C1629.02 -23.7592 1608.26 2.22336 1581.19 31.441C1527.05 89.8728 1447.62 161.262 1346.48 213.064C1144.13 316.703 855.045 341.856 508.001 28.5042C393.94 -74.4827 294.803 -168.029 206.061 -251.766C159.909 -295.315 116.568 -336.211 75.402 -374.403C-44.9393 -486.048 -146.71 -574.591 -245.931 -638.87C-444.277 -767.367 -632.515 -798.958 -938.66 -723.828L-939.061 -726.18C-632.564 -801.396 -443.827 -769.803 -244.981 -640.983C-145.605 -576.603 -43.7242 -487.955 76.6252 -376.302C117.815 -338.088 161.167 -297.181 207.325 -253.627Z" fill="url(#paint35_linear_12_6)"/>
<path fill-rule="evenodd" clip-rule="evenodd" d="M212.927 -286.172C306.693 -196.981 412.151 -96.6696 535.116 14.1876C881.75 326.688 1169.94 299.089 1371.46 193.514C1472.26 140.708 1551.41 68.3728 1605.36 9.23202C1632.33 -20.3368 1653.01 -46.6025 1666.93 -65.4717C1673.89 -74.9061 1679.17 -82.4911 1682.7 -87.7146C1684.47 -90.3265 1685.8 -92.3478 1686.69 -93.715C1687.13 -94.3985 1687.47 -94.9184 1687.69 -95.2668C1687.8 -95.441 1687.88 -95.5722 1687.94 -95.6596L1688.02 -95.7817C1688.02 -95.7868 1688.02 -95.7891 1688.82 -95.0683C1689.62 -94.3474 1689.62 -94.3441 1689.61 -94.338L1689.6 -94.3118L1689.53 -94.2095C1689.48 -94.1193 1689.39 -93.9851 1689.28 -93.808C1689.05 -93.4538 1688.71 -92.928 1688.27 -92.2385C1687.37 -90.8596 1686.03 -88.826 1684.26 -86.2017C1680.71 -80.9532 1675.41 -73.342 1668.43 -63.8801C1654.46 -44.9567 1633.74 -18.6291 1606.71 11.0044C1552.64 70.2681 1473.31 142.774 1372.26 195.713C1170.1 301.628 881.136 329.137 533.915 16.1068C410.928 -94.7699 305.437 -195.114 211.664 -284.31C173.171 -320.925 136.652 -355.662 101.708 -388.478C-18.3766 -501.251 -119.855 -591.335 -219.026 -657.115C-417.269 -788.61 -606.366 -823.039 -916.531 -746.939L-916.931 -749.29C-606.403 -825.48 -416.802 -791.042 -218.058 -659.216C-118.736 -593.335 -17.148 -503.145 102.941 -390.368C137.9 -357.538 174.428 -322.792 212.927 -286.172Z" fill="url(#paint36_linear_12_6)"/>
<path fill-rule="evenodd" clip-rule="evenodd" d="M220.969 -316.888C319.076 -222.757 430.072 -116.26 561.095 1.7088C734.505 157.84 893.209 228.391 1033.7 246.452C1174.19 264.514 1296.54 230.092 1397.23 176.16C1497.93 122.224 1576.98 48.777 1630.86 -11.1944C1657.79 -41.1783 1678.43 -67.7885 1692.33 -86.8985C1699.29 -96.4533 1704.55 -104.133 1708.08 -109.421C1709.84 -112.065 1711.17 -114.111 1712.06 -115.494C1712.5 -116.186 1712.83 -116.712 1713.06 -117.065C1713.17 -117.241 1713.25 -117.374 1713.31 -117.463L1713.38 -117.586C1713.39 -117.591 1713.39 -117.594 1714.19 -116.879C1714.99 -116.165 1714.99 -116.161 1714.99 -116.155L1714.97 -116.129L1714.91 -116.025C1714.85 -115.934 1714.77 -115.798 1714.65 -115.619C1714.43 -115.261 1714.09 -114.728 1713.64 -114.031C1712.75 -112.635 1711.41 -110.577 1709.64 -107.921C1706.1 -102.608 1700.81 -94.902 1693.84 -85.3198C1679.9 -66.1555 1659.21 -39.4834 1632.22 -9.43445C1578.23 50.66 1499 124.28 1398.05 178.352C1297.08 232.427 1174.39 266.953 1033.49 248.839C892.587 230.725 733.549 159.98 559.895 3.62892C428.846 -114.363 317.817 -220.892 219.707 -315.025C187.894 -345.549 157.438 -374.77 128.099 -402.656C8.26642 -516.553 -92.9328 -608.166 -192.07 -675.431C-291.19 -742.685 -388.236 -785.59 -499.753 -802.066C-611.281 -818.543 -737.333 -808.592 -894.469 -770.051L-894.869 -772.402C-737.6 -810.976 -611.319 -820.967 -499.509 -804.448C-387.687 -787.927 -290.391 -744.9 -191.086 -677.521C-91.7989 -610.154 9.50836 -518.434 129.341 -404.538C158.69 -376.642 189.152 -347.415 220.969 -316.888Z" fill="url(#paint37_linear_12_6)"/>
<path fill-rule="evenodd" clip-rule="evenodd" d="M230.385 -346.489C332.412 -247.69 448.449 -135.325 587.076 -10.6884C760.551 145.279 919.246 215.156 1059.69 232.298C1200.13 249.44 1322.38 213.854 1422.97 158.777C1523.57 103.696 1602.51 29.1234 1656.3 -31.6872C1683.2 -62.0907 1703.8 -89.0489 1717.68 -108.402C1724.62 -118.078 1729.87 -125.853 1733.4 -131.206C1735.16 -133.883 1736.48 -135.953 1737.37 -137.354C1737.81 -138.054 1738.14 -138.587 1738.36 -138.944L1738.52 -139.19L1738.61 -139.346L1738.69 -139.471C1738.69 -139.476 1738.69 -139.479 1739.5 -138.771C1740.31 -138.063 1740.31 -138.059 1740.3 -138.053L1740.29 -138.026L1740.22 -137.921C1740.16 -137.829 1740.08 -137.692 1739.97 -137.51C1739.85 -137.323 1739.71 -137.088 1739.53 -136.808C1739.37 -136.546 1739.18 -136.244 1738.96 -135.903C1738.07 -134.491 1736.73 -132.408 1734.97 -129.719C1731.43 -124.341 1726.15 -116.54 1719.2 -106.836C1705.28 -87.429 1684.63 -60.4087 1657.68 -29.9399C1603.77 30.9941 1524.66 105.741 1423.8 160.96C1322.94 216.183 1200.33 251.878 1059.48 234.686C918.63 217.494 759.599 147.422 585.877 -8.76727C447.217 -133.433 331.145 -245.833 229.115 -344.634C203.394 -369.541 178.565 -393.584 154.492 -416.742C34.9121 -531.773 -66.0057 -624.935 -165.106 -693.706C-264.187 -762.465 -361.438 -806.832 -473.669 -824.266C-585.912 -841.702 -713.191 -832.208 -872.338 -793.161L-872.739 -795.513C-713.455 -834.594 -585.942 -844.127 -473.412 -826.646C-360.871 -809.164 -263.37 -764.671 -164.105 -695.784C-64.8577 -626.911 36.1674 -533.642 155.743 -418.615C179.824 -395.449 204.659 -371.4 230.385 -346.489Z" fill="url(#paint38_linear_12_6)"/>
<path fill-rule="evenodd" clip-rule="evenodd" d="M241.465 -374.802C346.926 -271.688 467.407 -153.888 612.988 -23.1685C786.53 132.656 945.222 201.878 1085.62 218.119C1226.02 234.361 1348.2 197.629 1448.71 141.422C1549.23 85.2116 1628.08 9.52677 1681.8 -52.1141C1708.66 -82.9327 1729.23 -110.235 1743.09 -129.829C1750.02 -139.626 1755.27 -147.495 1758.78 -152.912C1760.54 -155.621 1761.86 -157.717 1762.75 -159.134C1763.19 -159.842 1763.52 -160.381 1763.74 -160.742L1763.99 -161.149L1764.06 -161.276C1764.07 -161.279 1764.07 -161.282 1764.32 -161.062C1764.44 -160.958 1764.62 -160.806 1764.88 -160.582C1765.69 -159.88 1765.69 -159.876 1765.69 -159.87L1765.61 -159.737C1765.55 -159.644 1765.46 -159.505 1765.35 -159.321C1765.2 -159.078 1765.01 -158.757 1764.76 -158.359C1764.63 -158.157 1764.5 -157.936 1764.35 -157.695C1763.46 -156.266 1762.12 -154.159 1760.36 -151.438C1756.83 -145.996 1751.56 -138.1 1744.61 -128.276C1730.72 -108.628 1710.1 -81.2631 1683.18 -50.3791C1629.35 11.3854 1550.33 87.2463 1449.55 143.598C1348.78 199.953 1226.25 236.798 1085.43 220.509C944.613 204.219 785.58 134.801 611.79 -21.2464C466.172 -151.999 345.655 -269.834 240.193 -372.949C219.865 -392.824 200.098 -412.152 180.817 -430.92C61.492 -547.075 -39.1422 -641.765 -138.2 -712.022C-237.24 -782.266 -334.687 -828.073 -447.624 -846.456C-560.572 -864.84 -689.067 -855.804 -850.208 -816.272L-850.608 -818.624C-689.327 -858.19 -560.595 -867.266 -447.355 -848.834C-334.104 -830.4 -236.405 -784.462 -137.183 -714.089C-37.9803 -643.729 62.7604 -548.931 182.077 -432.784C201.363 -414.011 221.135 -394.679 241.465 -374.802Z" fill="url(#paint39_linear_12_6)"/>
<path fill-rule="evenodd" clip-rule="evenodd" d="M253.971 -402.062C362.489 -294.887 486.94 -171.977 638.968 -35.6472C812.576 120.035 971.263 188.602 1111.62 203.943C1251.97 219.284 1374.06 181.405 1474.48 124.068C1574.91 66.7283 1653.66 -10.069 1707.31 -72.5404C1734.13 -103.774 1754.67 -131.422 1768.5 -151.256C1775.42 -161.173 1780.66 -169.137 1784.17 -174.618C1785.92 -177.359 1787.24 -179.48 1788.12 -180.913C1788.56 -181.63 1788.9 -182.175 1789.12 -182.54C1789.23 -182.723 1789.31 -182.861 1789.36 -182.952L1789.44 -183.081C1789.44 -183.086 1789.45 -183.088 1790.26 -182.393C1791.08 -181.697 1791.07 -181.693 1791.07 -181.687L1791.05 -181.66L1790.99 -181.553C1790.93 -181.458 1790.85 -181.318 1790.74 -181.132C1790.51 -180.761 1790.18 -180.21 1789.73 -179.487C1788.84 -178.042 1787.51 -175.909 1785.75 -173.156C1782.23 -167.65 1776.97 -159.66 1770.03 -149.715C1756.16 -129.827 1735.58 -102.117 1708.7 -70.8177C1654.95 -8.22268 1576.02 68.7523 1475.34 126.236C1374.66 183.723 1252.21 221.72 1111.44 206.333C970.66 190.946 811.629 122.182 637.771 -33.7243C485.702 -170.09 361.215 -293.036 252.697 -400.211C237.22 -415.496 222.069 -430.46 207.208 -445.096C88.1348 -562.374 -12.2198 -658.59 -111.245 -730.328C-210.25 -802.051 -307.908 -849.291 -421.569 -868.611C-535.241 -887.933 -664.977 -879.339 -828.145 -839.301L-828.546 -841.653C-665.234 -881.726 -535.257 -890.36 -421.288 -870.988C-307.309 -851.614 -209.398 -804.237 -110.211 -732.383C-11.0444 -660.542 89.4161 -564.217 208.477 -446.952C223.34 -432.313 238.493 -417.347 253.971 -402.062Z" fill="url(#paint40_linear_12_6)"/>
<path fill-rule="evenodd" clip-rule="evenodd" d="M267.062 -428.806C378.435 -317.656 506.598 -189.749 664.881 -48.0445C838.574 107.455 997.266 175.336 1137.58 189.754C1277.89 204.172 1399.89 165.132 1500.22 106.655C1600.55 48.1748 1679.19 -29.7402 1732.75 -93.0447C1759.53 -124.695 1780.04 -152.687 1793.85 -172.763C1800.75 -182.801 1805.98 -190.859 1809.48 -196.405C1811.23 -199.178 1812.55 -201.323 1813.43 -202.773C1813.87 -203.498 1814.2 -204.05 1814.42 -204.419L1814.56 -204.648L1814.67 -204.836L1814.73 -204.94L1814.75 -204.966C1814.75 -204.971 1814.75 -204.974 1815.57 -204.284C1816.39 -203.594 1816.39 -203.591 1816.38 -203.584L1816.3 -203.448C1816.25 -203.353 1816.16 -203.211 1816.05 -203.023C1815.83 -202.648 1815.49 -202.091 1815.05 -201.36C1814.16 -199.898 1812.84 -197.741 1811.08 -194.955C1807.56 -189.385 1802.31 -181.3 1795.39 -171.235C1781.54 -151.105 1760.99 -123.051 1734.16 -91.3344C1680.49 -27.9061 1601.67 50.1881 1501.09 108.814C1400.51 167.444 1278.14 206.607 1137.41 192.146C996.67 177.684 837.631 109.604 663.685 -46.1204C505.36 -187.862 377.16 -315.807 265.789 -426.955C254.874 -437.848 244.12 -448.58 233.516 -459.148C114.699 -577.557 14.6361 -675.324 -84.3389 -748.573C-183.294 -821.807 -281.14 -870.515 -395.505 -890.8C-509.88 -911.087 -640.835 -902.956 -806.015 -862.413L-806.416 -864.765C-641.09 -905.344 -509.889 -913.515 -395.212 -893.175C-280.525 -872.833 -182.423 -823.983 -83.2892 -750.616C15.825 -677.264 115.993 -579.387 234.793 -460.995C245.397 -450.428 256.149 -439.698 267.062 -428.806Z" fill="url(#paint41_linear_12_6)"/>
<path fill-rule="evenodd" clip-rule="evenodd" d="M281.87 -454.339C395.686 -339.518 527.019 -207.027 690.861 -60.5232C864.603 94.8328 1023.28 162.06 1163.54 175.577C1303.8 189.094 1425.73 148.908 1525.96 89.3011C1626.2 29.6911 1704.75 -49.3365 1758.24 -113.471C1784.99 -145.537 1805.46 -173.874 1819.25 -194.19C1826.14 -204.349 1831.36 -212.501 1834.86 -218.111C1836.61 -220.917 1837.92 -223.086 1838.8 -224.553C1839.24 -225.286 1839.57 -225.844 1839.79 -226.218C1839.9 -226.405 1839.98 -226.546 1840.04 -226.639L1840.1 -226.745L1840.11 -226.771C1840.12 -226.776 1840.12 -226.779 1840.94 -226.095C1841.38 -225.73 1841.58 -225.558 1841.68 -225.477C1841.76 -225.407 1841.76 -225.404 1841.76 -225.401L1841.74 -225.373L1841.68 -225.264C1841.62 -225.167 1841.54 -225.024 1841.42 -224.834C1841.2 -224.454 1840.87 -223.891 1840.43 -223.152C1839.54 -221.673 1838.22 -219.491 1836.46 -216.674C1832.95 -211.039 1827.71 -202.86 1820.8 -192.675C1806.97 -172.304 1786.45 -143.905 1759.66 -111.773C1706.06 -47.5145 1627.34 31.6937 1526.85 91.452C1426.35 151.214 1304.07 191.528 1163.38 177.97C1022.69 164.411 863.662 96.9849 689.666 -58.5984C525.777 -205.145 394.405 -337.675 280.591 -452.493C273.642 -459.504 266.758 -466.448 259.936 -473.326C141.376 -592.858 41.593 -692.154 -57.3488 -766.888C-156.27 -841.608 -254.326 -891.757 -369.411 -912.99C-484.507 -934.226 -616.694 -926.552 -783.885 -885.524L-784.286 -887.876C-616.946 -928.94 -484.509 -936.655 -369.107 -915.363C-253.695 -894.069 -155.382 -843.774 -56.2834 -768.92C42.7949 -694.082 142.683 -594.675 261.223 -475.164C268.042 -468.289 274.924 -461.347 281.87 -454.339Z" fill="url(#paint42_linear_12_6)"/>
<path fill-rule="evenodd" clip-rule="evenodd" d="M297.498 -479.262C413.539 -360.899 547.75 -224.002 716.84 -73.0021C890.649 82.2114 1049.32 148.784 1189.54 161.401C1329.75 174.018 1451.59 132.685 1551.74 71.9485C1651.89 11.2086 1730.33 -68.9315 1783.75 -133.897C1810.45 -166.377 1830.9 -195.059 1844.66 -215.616C1851.54 -225.895 1856.75 -234.142 1860.24 -239.817C1861.99 -242.654 1863.3 -244.848 1864.18 -246.332C1864.62 -247.073 1864.95 -247.637 1865.17 -248.015L1865.35 -248.338L1865.41 -248.442L1865.48 -248.548L1865.49 -248.574C1865.49 -248.58 1865.49 -248.582 1866.32 -247.905C1867.15 -247.227 1867.14 -247.224 1867.14 -247.217L1867.12 -247.189L1867.06 -247.078C1867 -246.98 1866.92 -246.835 1866.81 -246.643C1866.65 -246.371 1866.44 -246.004 1866.17 -245.547L1865.81 -244.942C1864.93 -243.447 1863.61 -241.241 1861.85 -238.391C1858.35 -232.692 1853.12 -224.419 1846.22 -214.113C1832.42 -193.501 1811.93 -164.758 1785.17 -132.211C1731.66 -67.1216 1653.04 13.2004 1552.64 74.0908C1452.23 134.985 1330.03 176.45 1189.39 163.794C1048.74 151.138 889.711 84.3658 715.646 -71.0762C546.505 -222.123 412.251 -359.062 296.212 -477.423C292.903 -480.798 289.609 -484.158 286.328 -487.504C168.021 -608.16 68.5204 -708.983 -30.3839 -785.204C-129.267 -861.409 -227.527 -912.998 -343.327 -935.18C-459.138 -957.364 -592.553 -950.148 -761.755 -908.635L-762.156 -910.987C-592.802 -952.537 -459.132 -959.794 -343.012 -937.55C-226.88 -915.305 -128.362 -863.564 -29.3032 -787.224C69.7349 -710.9 169.341 -609.964 287.624 -489.333C290.9 -485.991 294.192 -482.634 297.498 -479.262Z" fill="url(#paint43_linear_12_6)"/>
<path fill-rule="evenodd" clip-rule="evenodd" d="M313.939 -503.411C431.976 -381.635 568.764 -240.538 742.754 -85.4005C916.645 69.6499 1075.32 135.547 1215.49 147.245C1355.67 158.943 1477.42 116.446 1577.47 54.5646C1677.52 -7.32016 1755.86 -88.5854 1809.19 -154.39C1835.86 -187.29 1856.27 -216.32 1870.01 -237.12C1876.87 -247.52 1882.08 -255.863 1885.56 -261.602C1887.3 -264.472 1888.61 -266.691 1889.49 -268.192C1889.93 -268.942 1890.26 -269.512 1890.47 -269.894C1890.58 -270.085 1890.67 -270.229 1890.72 -270.325L1890.78 -270.433L1890.8 -270.46C1890.8 -270.465 1890.8 -270.468 1891.63 -269.796C1892.05 -269.455 1892.26 -269.286 1892.36 -269.202C1892.46 -269.12 1892.46 -269.118 1892.45 -269.114L1892.44 -269.086L1892.37 -268.974C1892.32 -268.875 1892.23 -268.728 1892.12 -268.534C1891.9 -268.146 1891.57 -267.57 1891.13 -266.814C1890.24 -265.302 1888.93 -263.071 1887.18 -260.189C1883.68 -254.425 1878.46 -246.056 1871.57 -235.629C1857.8 -214.775 1837.35 -185.683 1810.63 -152.716C1757.2 -86.7879 1678.69 -5.33931 1578.38 56.6984C1478.07 118.74 1355.96 161.374 1215.35 149.639C1074.74 137.905 915.711 71.8068 741.561 -83.4736C567.508 -238.667 430.673 -379.815 312.635 -501.591L312.354 -501.88C194.426 -623.543 95.2938 -725.814 -3.48633 -803.48C-102.323 -881.19 -200.779 -934.24 -317.292 -957.38C-433.815 -980.523 -568.463 -973.764 -739.693 -931.746L-740.094 -934.097C-568.709 -976.154 -433.803 -982.954 -316.965 -959.749C-200.116 -936.541 -101.402 -883.335 -2.39038 -805.488C96.4982 -727.737 195.712 -625.381 313.577 -503.784L313.939 -503.411Z" fill="url(#paint44_linear_12_6)"/>
<path fill-rule="evenodd" clip-rule="evenodd" d="M340.339 -517.58C458.119 -394.684 594.678 -252.873 768.733 -97.8792C942.691 57.0285 1101.36 122.271 1241.49 133.069C1381.61 143.866 1503.28 100.223 1603.24 37.2115C1703.2 -25.8033 1781.44 -108.181 1834.69 -174.817C1861.32 -208.132 1881.69 -237.506 1895.41 -258.547C1902.27 -269.068 1907.46 -277.505 1910.94 -283.309C1912.67 -286.211 1913.98 -288.454 1914.86 -289.971C1915.3 -290.73 1915.62 -291.307 1915.84 -291.693C1915.95 -291.886 1916.03 -292.032 1916.09 -292.129L1916.15 -292.238L1916.16 -292.264C1916.17 -292.27 1916.17 -292.273 1917 -291.607C1917.83 -290.941 1917.83 -290.938 1917.83 -290.931L1917.81 -290.902L1917.75 -290.789C1917.69 -290.689 1917.61 -290.541 1917.5 -290.345C1917.28 -289.953 1916.94 -289.37 1916.5 -288.606C1915.62 -287.077 1914.31 -284.822 1912.56 -281.907C1909.07 -276.079 1903.86 -267.616 1896.98 -257.068C1883.23 -235.973 1862.82 -206.537 1836.14 -173.155C1782.78 -106.396 1704.37 -23.8333 1604.17 39.3366C1503.95 102.51 1381.92 146.295 1241.36 135.464C1100.79 124.632 941.76 59.1879 767.542 -95.9514C593.419 -251.005 456.811 -392.868 339.027 -515.768C335.865 -519.067 332.716 -522.353 329.581 -525.625C215.917 -644.243 119.647 -744.709 23.4786 -821.796C-75.3201 -900.991 -173.979 -955.482 -291.207 -979.571C-408.446 -1003.66 -544.322 -997.361 -717.563 -954.858L-717.964 -957.209C-544.565 -999.752 -408.427 -1006.09 -290.87 -981.937C-173.302 -957.778 -74.3824 -903.126 24.5894 -823.792C120.865 -746.619 217.221 -646.063 330.834 -527.499C333.989 -524.206 337.157 -520.9 340.339 -517.58Z" fill="url(#paint45_linear_12_6)"/>
<path fill-rule="evenodd" clip-rule="evenodd" d="M366.683 -531.749C484.2 -407.733 620.525 -265.208 794.646 -110.358C968.672 44.407 1127.34 108.995 1267.43 118.892C1407.52 128.79 1529.11 83.9992 1628.98 19.8582C1728.86 -44.2866 1807.01 -127.777 1860.19 -195.243C1886.78 -228.974 1907.12 -258.693 1920.82 -279.975C1927.67 -290.616 1932.85 -299.147 1936.32 -305.015C1938.06 -307.949 1939.36 -310.218 1940.24 -311.751C1940.67 -312.518 1941 -313.101 1941.22 -313.492C1941.33 -313.687 1941.41 -313.834 1941.46 -313.932L1941.53 -314.042L1941.54 -314.07C1941.54 -314.075 1941.55 -314.078 1942.38 -313.418C1942.94 -312.979 1943.12 -312.83 1943.18 -312.778C1943.21 -312.752 1943.21 -312.75 1943.21 -312.748L1943.13 -312.604C1943.07 -312.503 1942.99 -312.353 1942.88 -312.155C1942.66 -311.759 1942.33 -311.17 1941.89 -310.398C1941.01 -308.852 1939.7 -306.572 1937.95 -303.626C1934.47 -297.733 1929.27 -289.176 1922.4 -278.508C1908.67 -257.172 1888.29 -227.391 1861.64 -193.594C1808.36 -126.004 1730.05 -42.3273 1629.92 21.9747C1529.79 86.2806 1407.84 131.217 1267.31 121.288C1126.78 111.36 967.744 46.5687 793.455 -108.429C619.263 -263.343 482.887 -405.923 365.363 -529.946C359.327 -536.315 353.342 -542.635 347.404 -548.905C237.694 -664.747 144.114 -763.557 50.4105 -840.112C-48.3417 -920.793 -147.196 -976.724 -265.133 -1001.76C-383.08 -1026.8 -520.18 -1020.96 -695.432 -977.968L-695.833 -980.32C-520.42 -1023.35 -383.054 -1029.23 -264.784 -1004.13C-146.504 -979.014 -47.3879 -922.917 51.5359 -842.097C145.346 -765.454 239.014 -666.551 348.683 -550.752C354.635 -544.467 360.634 -538.132 366.683 -531.749Z" fill="url(#paint46_linear_12_6)"/>
<path fill-rule="evenodd" clip-rule="evenodd" d="M393.074 -545.814C510.34 -420.675 646.438 -277.442 820.625 -122.756C994.718 31.8458 1153.37 95.7588 1293.41 104.737C1433.45 113.715 1554.95 67.7612 1654.72 2.47507C1754.5 -62.8149 1832.54 -147.431 1885.64 -215.736C1912.19 -249.887 1932.5 -279.953 1946.17 -301.479C1953 -312.241 1958.17 -320.868 1961.64 -326.801C1963.37 -329.768 1964.68 -332.061 1965.55 -333.611C1965.79 -334.039 1965.99 -334.41 1966.17 -334.723C1966.31 -334.977 1966.43 -335.194 1966.53 -335.371C1966.64 -335.568 1966.72 -335.717 1966.77 -335.816L1966.83 -335.928L1966.85 -335.955C1966.85 -335.961 1966.85 -335.963 1967.69 -335.309C1968.53 -334.655 1968.53 -334.652 1968.52 -334.645L1968.44 -334.5C1968.39 -334.398 1968.31 -334.246 1968.19 -334.046C1967.97 -333.646 1967.64 -333.05 1967.21 -332.27C1966.33 -330.708 1965.02 -328.402 1963.28 -325.424C1959.8 -319.466 1954.61 -310.813 1947.76 -300.024C1934.05 -278.445 1913.7 -248.316 1887.1 -214.099C1833.91 -145.67 1755.7 -60.8667 1655.68 4.58257C1555.65 70.0357 1433.79 116.141 1293.3 107.134C1152.82 98.127 993.793 34.0101 819.435 -120.827C645.174 -275.579 509.021 -418.871 391.745 -544.02C383.016 -553.335 374.392 -562.549 365.865 -571.66C259.812 -684.969 168.743 -782.268 77.3501 -858.346C-21.3684 -940.522 -120.429 -997.904 -239.077 -1023.89C-357.737 -1049.88 -496.056 -1044.49 -673.303 -1001L-673.704 -1003.35C-496.294 -1046.88 -357.705 -1052.32 -238.718 -1026.25C-119.721 -1000.19 -20.3986 -942.636 78.4899 -860.319C169.988 -784.154 261.146 -686.758 367.167 -573.482C375.703 -564.362 384.337 -555.138 393.074 -545.814Z" fill="url(#paint47_linear_12_6)"/>
<path fill-rule="evenodd" clip-rule="evenodd" d="M419.474 -559.994C536.484 -433.728 672.352 -289.777 846.605 -135.235C1020.76 19.2246 1179.41 82.4829 1319.4 90.561C1459.4 98.6393 1580.81 51.5387 1680.49 -14.8773C1780.18 -81.2972 1858.12 -167.026 1911.14 -236.162C1937.65 -270.727 1957.92 -301.139 1971.57 -322.905C1978.39 -333.788 1983.56 -342.509 1987.02 -348.506C1988.74 -351.505 1990.05 -353.823 1990.92 -355.39C1991.17 -355.856 1991.39 -356.255 1991.58 -356.586C1991.7 -356.812 1991.81 -357.006 1991.89 -357.168L1992.08 -357.502L1992.14 -357.619L1992.21 -357.759C1992.22 -357.765 1992.22 -357.767 1993.06 -357.119C1993.9 -356.471 1993.9 -356.467 1993.9 -356.46L1993.88 -356.43L1993.81 -356.297C1993.75 -356.195 1993.67 -356.047 1993.57 -355.855C1993.35 -355.45 1993.02 -354.849 1992.58 -354.06C1991.71 -352.481 1990.4 -350.152 1988.66 -347.141C1985.19 -341.119 1980.01 -332.372 1973.17 -321.462C1959.49 -299.642 1939.17 -269.168 1912.61 -234.536C1859.49 -165.277 1781.39 -79.3599 1681.46 -12.7787C1581.52 53.8065 1459.75 101.063 1319.31 92.9586C1178.86 84.8543 1019.84 21.3912 845.416 -133.305C671.085 -287.917 535.159 -431.93 418.136 -558.209C406.915 -570.318 395.869 -582.263 384.979 -594.038C282.285 -705.082 193.552 -801.03 104.307 -876.693C5.6225 -960.359 -93.6479 -1019.18 -213.021 -1046.12C-332.405 -1073.05 -471.965 -1068.11 -651.24 -1024.11L-651.641 -1026.46C-472.201 -1070.5 -332.367 -1075.49 -212.652 -1048.48C-92.9262 -1021.46 6.60785 -962.463 105.461 -878.654C194.809 -802.903 283.634 -706.855 386.304 -595.836C397.199 -584.055 408.25 -572.106 419.474 -559.994Z" fill="url(#paint48_linear_12_6)"/>
<path fill-rule="evenodd" clip-rule="evenodd" d="M445.788 -574.163C562.538 -446.777 698.18 -302.113 872.514 -147.714C1046.76 6.60255 1205.42 69.2061 1345.37 76.3839C1485.33 83.562 1606.66 35.315 1706.25 -32.231C1805.85 -99.781 1883.7 -186.622 1936.64 -256.589C1963.11 -291.57 1983.36 -322.326 1996.98 -344.332C2003.79 -355.336 2008.95 -364.151 2012.4 -370.213C2014.13 -373.244 2015.43 -375.587 2016.3 -377.17C2016.73 -377.962 2017.05 -378.564 2017.27 -378.967C2017.38 -379.169 2017.46 -379.321 2017.52 -379.422L2017.58 -379.536L2017.59 -379.564C2017.59 -379.57 2017.6 -379.573 2018.44 -378.93C2019.28 -378.288 2019.28 -378.284 2019.28 -378.277L2019.26 -378.247L2019.2 -378.129C2019.14 -378.025 2019.06 -377.87 2018.95 -377.666C2018.73 -377.257 2018.4 -376.649 2017.97 -375.851C2017.09 -374.256 2015.79 -371.902 2014.05 -368.859C2010.59 -362.772 2005.42 -353.931 1998.59 -342.901C1984.93 -320.841 1964.65 -290.022 1938.12 -254.975C1885.08 -184.885 1807.08 -97.8545 1707.24 -30.1413C1607.39 37.5759 1485.69 85.9832 1345.28 78.7821C1204.87 71.5808 1045.84 8.77166 871.327 -145.783C696.91 -300.255 561.208 -444.984 444.443 -572.387C430.863 -587.204 417.54 -601.786 404.442 -616.121C304.907 -725.06 218.4 -819.741 131.214 -895.009C32.5799 -980.16 -66.8795 -1040.43 -186.956 -1068.31C-307.044 -1096.19 -447.824 -1091.71 -629.11 -1047.22L-629.511 -1049.57C-448.057 -1094.1 -306.999 -1098.63 -186.577 -1070.66C-66.1434 -1042.7 33.5806 -982.253 132.382 -896.958C219.669 -821.602 306.269 -726.819 405.788 -617.897C418.887 -603.56 432.21 -588.978 445.788 -574.163Z" fill="url(#paint49_linear_12_6)"/>
<path fill-rule="evenodd" clip-rule="evenodd" d="M472.221 -588.196C588.713 -459.689 724.118 -314.327 898.503 -160.112C1072.8 -5.97901 1231.43 55.9396 1371.33 62.1945C1511.23 68.4498 1632.48 19.0414 1731.97 -49.6448C1831.48 -118.335 1909.22 -206.294 1962.08 -277.094C1988.52 -312.491 2008.73 -343.592 2022.33 -365.84C2029.13 -376.964 2034.27 -385.874 2037.72 -392C2039.44 -395.063 2040.74 -397.431 2041.6 -399.031C2042.04 -399.831 2042.36 -400.439 2042.58 -400.847C2042.69 -401.051 2042.77 -401.204 2042.82 -401.307L2042.9 -401.45C2042.9 -401.456 2042.9 -401.459 2043.75 -400.822C2044.19 -400.491 2044.4 -400.331 2044.5 -400.252C2044.6 -400.18 2044.59 -400.177 2044.59 -400.174L2044.58 -400.143L2044.51 -400.024C2044.46 -399.919 2044.38 -399.763 2044.27 -399.556C2044.17 -399.367 2044.04 -399.137 2043.9 -398.865C2043.72 -398.542 2043.52 -398.161 2043.28 -397.723C2042.41 -396.112 2041.11 -393.733 2039.38 -390.657C2035.92 -384.507 2030.75 -375.571 2023.94 -364.42C2010.31 -342.119 1990.05 -310.955 1963.57 -275.491C1910.61 -204.569 1832.71 -116.419 1732.97 -47.5641C1633.22 21.2951 1511.61 70.8688 1371.26 64.5933C1230.9 58.3176 1071.88 -3.8074 897.317 -158.18C722.845 -312.471 587.377 -457.902 470.868 -586.428C455.075 -603.849 439.632 -620.959 424.488 -637.737C327.891 -744.757 243.465 -838.292 158.206 -913.224C59.605 -999.881 -40.0648 -1061.61 -160.862 -1090.46C-281.671 -1119.32 -423.682 -1115.3 -606.981 -1070.33L-607.381 -1072.68C-423.913 -1117.69 -281.619 -1121.75 -160.472 -1092.82C-39.3145 -1063.88 60.621 -1001.96 159.387 -915.161C244.746 -840.142 329.266 -746.502 425.854 -639.491C440.996 -622.714 456.436 -605.609 472.221 -588.196Z" fill="url(#paint50_linear_12_6)"/>
<path fill-rule="evenodd" clip-rule="evenodd" d="M498.534 -602.376C614.767 -472.743 749.946 -326.662 924.413 -172.591C1098.79 -18.6003 1257.44 42.6636 1397.3 48.0185C1537.16 53.3735 1658.33 2.81863 1757.74 -66.9977C1857.16 -136.818 1934.8 -225.89 1987.59 -297.52C2013.98 -333.333 2034.16 -364.779 2047.74 -387.267C2054.53 -398.512 2059.67 -407.516 2063.1 -413.707C2064.82 -416.802 2066.12 -419.194 2066.98 -420.811C2067.42 -421.619 2067.74 -422.234 2067.96 -422.646L2068.2 -423.11L2068.26 -423.226L2068.28 -423.255C2068.28 -423.261 2068.28 -423.264 2069.13 -422.632C2069.98 -422.001 2069.98 -421.997 2069.97 -421.99L2069.96 -421.959L2069.9 -421.839C2069.84 -421.733 2069.76 -421.575 2069.65 -421.366C2069.43 -420.949 2069.1 -420.329 2068.67 -419.515C2067.8 -417.886 2066.5 -415.483 2064.77 -412.375C2061.32 -406.16 2056.16 -397.13 2049.36 -385.859C2035.75 -363.317 2015.53 -331.809 1989.09 -295.93C1936.2 -224.177 1858.4 -134.913 1758.75 -64.9259C1659.09 5.06524 1537.55 55.7902 1397.23 50.4176C1256.91 45.0448 1097.88 -16.4263 923.228 -170.658C748.67 -324.809 613.425 -470.962 497.173 -600.617C479.317 -620.532 461.911 -640.055 444.88 -659.158C351.01 -764.444 268.545 -856.94 185.104 -931.57C86.5502 -1019.72 -13.3149 -1082.89 -134.826 -1112.69C-256.347 -1142.49 -399.591 -1138.92 -584.917 -1093.44L-585.318 -1095.79C-399.819 -1141.31 -256.289 -1144.92 -134.425 -1115.04C-12.5507 -1085.15 87.5811 -1021.79 186.299 -933.495C269.837 -858.778 352.398 -766.175 446.263 -660.892C463.29 -641.794 480.689 -622.278 498.534 -602.376Z" fill="url(#paint51_linear_12_6)"/>
<path fill-rule="evenodd" clip-rule="evenodd" d="M524.934 -616.545C640.91 -485.791 775.86 -338.997 950.392 -185.07C1124.84 -31.222 1283.48 29.3873 1423.29 33.8422C1563.11 38.2973 1684.19 -13.4039 1783.51 -84.3503C1882.83 -155.301 1960.37 -245.485 2013.09 -317.946C2039.44 -354.174 2059.59 -385.964 2073.14 -408.694C2079.92 -420.058 2085.05 -429.157 2088.48 -435.413C2090.2 -438.54 2091.49 -440.957 2092.35 -442.59C2092.79 -443.407 2093.11 -444.028 2093.33 -444.444L2093.57 -444.913L2093.63 -445.031L2093.64 -445.059C2093.65 -445.066 2093.65 -445.068 2094.5 -444.442C2095.01 -444.069 2095.21 -443.917 2095.3 -443.853C2095.35 -443.81 2095.35 -443.808 2095.35 -443.805L2095.27 -443.653C2095.21 -443.546 2095.13 -443.386 2095.02 -443.175C2094.91 -442.952 2094.76 -442.67 2094.58 -442.332C2094.43 -442.034 2094.25 -441.691 2094.04 -441.305C2093.17 -439.66 2091.87 -437.232 2090.15 -434.092C2086.71 -427.813 2081.56 -418.688 2074.77 -407.297C2061.18 -384.514 2041 -352.662 2014.6 -316.367C1961.79 -243.784 1884.09 -153.407 1784.53 -82.2876C1684.97 -11.1646 1563.52 40.7114 1423.24 36.2417C1282.95 31.7719 1123.93 -29.0455 949.208 -183.136C774.58 -337.147 639.564 -484.016 523.565 -614.795C503.806 -637.072 484.599 -658.881 465.845 -680.177C374.482 -783.919 293.829 -875.5 212.07 -949.887C113.554 -1039.52 13.4849 -1104.13 -108.741 -1134.88C-230.978 -1165.63 -375.45 -1162.51 -562.788 -1116.55L-563.188 -1118.91C-375.676 -1164.91 -230.914 -1168.06 -108.331 -1137.23C14.2627 -1106.39 114.599 -1041.58 213.278 -951.8C295.132 -877.326 375.882 -785.635 467.246 -681.891C485.995 -660.601 505.19 -638.804 524.934 -616.545Z" fill="url(#paint52_linear_12_6)"/>
<path fill-rule="evenodd" clip-rule="evenodd" d="M551.335 -630.61C667.054 -498.733 801.774 -351.23 976.372 -197.467C1150.88 -43.7821 1309.51 16.1522 1449.27 19.688C1589.04 23.224 1710.03 -29.6413 1809.25 -101.733C1908.47 -173.829 1985.91 -265.139 2038.54 -338.439C2064.85 -375.087 2084.96 -407.225 2098.49 -430.198C2105.25 -441.684 2110.37 -450.879 2113.8 -457.199C2115.51 -460.359 2116.8 -462.8 2117.66 -464.451C2118.09 -465.276 2118.42 -465.903 2118.63 -466.323L2118.78 -466.608L2118.87 -466.797L2118.93 -466.916L2118.95 -466.945C2118.95 -466.951 2118.95 -466.954 2119.81 -466.334C2120.67 -465.713 2120.66 -465.709 2120.66 -465.702L2120.64 -465.671L2120.58 -465.548C2120.53 -465.44 2120.45 -465.279 2120.34 -465.066C2120.12 -464.64 2119.79 -464.007 2119.36 -463.176C2118.49 -461.515 2117.2 -459.062 2115.48 -455.89C2112.04 -449.545 2106.9 -440.326 2100.12 -428.813C2086.56 -405.787 2066.41 -373.586 2040.05 -336.872C1987.33 -263.449 1909.74 -171.946 1810.28 -99.6797C1710.82 -27.4094 1589.46 25.6355 1449.23 22.0878C1309 18.54 1149.97 -41.6032 975.189 -195.532C800.491 -349.382 665.702 -496.963 549.958 -628.869C528.385 -653.454 507.476 -677.492 487.095 -700.923C398.107 -803.227 319.184 -893.96 239.036 -968.131C140.558 -1059.26 40.285 -1125.34 -82.6563 -1157.04C-205.608 -1188.75 -351.308 -1186.11 -540.658 -1139.66L-541.058 -1142.02C-351.532 -1188.5 -205.538 -1191.19 -82.2361 -1159.39C41.0764 -1127.59 141.618 -1061.31 240.257 -970.032C320.498 -895.775 399.518 -804.931 488.511 -702.62C508.885 -679.197 529.781 -655.173 551.335 -630.61Z" fill="url(#paint53_linear_12_6)"/>
<path fill-rule="evenodd" clip-rule="evenodd" d="M577.678 -644.79C693.134 -511.786 827.618 -363.566 1002.28 -209.946C1176.86 -56.4038 1335.49 2.87591 1475.21 5.51165C1614.94 8.14753 1735.85 -45.8642 1834.99 -119.086C1934.13 -192.312 2011.47 -284.735 2064.03 -358.866C2090.31 -395.929 2110.39 -428.412 2123.9 -451.626C2130.65 -463.233 2135.76 -472.521 2139.19 -478.906C2140.9 -482.098 2142.18 -484.565 2143.04 -486.231C2143.47 -487.065 2143.8 -487.698 2144.01 -488.123L2144.13 -488.36L2144.31 -488.721L2144.33 -488.751C2144.33 -488.755 2144.33 -488.757 2144.5 -488.637C2144.62 -488.551 2144.83 -488.402 2145.19 -488.145C2146.05 -487.53 2146.05 -487.526 2146.04 -487.519L2146.03 -487.487L2145.97 -487.363L2145.72 -486.876C2145.5 -486.446 2145.18 -485.807 2144.74 -484.968C2143.88 -483.29 2142.58 -480.812 2140.87 -477.608C2137.43 -471.199 2132.31 -461.885 2125.54 -450.252C2112 -426.985 2091.88 -394.44 2065.56 -357.311C2012.91 -283.057 1935.41 -190.44 1836.04 -117.042C1736.66 -43.6399 1615.37 10.5563 1475.18 7.91173C1334.98 5.26698 1175.95 -54.2223 1001.1 -208.01C826.333 -361.72 691.776 -510.023 576.293 -643.059C553.036 -669.85 530.555 -696.02 508.677 -721.487C421.899 -822.504 344.603 -912.483 265.968 -986.478C167.537 -1079.1 67.069 -1146.62 -56.5814 -1179.27C-180.242 -1211.92 -327.166 -1209.73 -518.527 -1162.78L-518.928 -1165.13C-327.388 -1212.12 -180.167 -1214.36 -56.1517 -1181.61C67.8737 -1148.86 168.611 -1081.14 267.202 -988.367C345.928 -914.286 423.322 -824.193 510.109 -723.165C531.979 -697.707 554.444 -671.555 577.678 -644.79Z" fill="url(#paint54_linear_12_6)"/>
</g>
<defs>
<linearGradient id="paint0_linear_12_6" x1="-689.236" y1="122.327" x2="-878.042" y2="976.424" gradientUnits="userSpaceOnUse">
<stop offset="0.172" stop-opacity="0.1"/>
<stop offset="0.448" stop-color="#04D2CA" stop-opacity="0.2"/>
<stop offset="0.667" stop-color="#6A49E4" stop-opacity="0.4"/>
<stop offset="1" stop-opacity="0.2"/>
</linearGradient>
<linearGradient id="paint1_linear_12_6" x1="-665.772" y1="103.199" x2="-855.74" y2="960.381" gradientUnits="userSpaceOnUse">
<stop offset="0.172" stop-opacity="0.1"/>
<stop offset="0.448" stop-color="#04D2CA" stop-opacity="0.2"/>
<stop offset="0.667" stop-color="#6A49E4" stop-opacity="0.4"/>
<stop offset="1" stop-opacity="0.2"/>
</linearGradient>
<linearGradient id="paint2_linear_12_6" x1="-642.337" y1="83.8758" x2="-833.6" y2="944.407" gradientUnits="userSpaceOnUse">
<stop offset="0.172" stop-opacity="0.1"/>
<stop offset="0.448" stop-color="#04D2CA" stop-opacity="0.2"/>
<stop offset="0.667" stop-color="#6A49E4" stop-opacity="0.4"/>
<stop offset="1" stop-opacity="0.2"/>
</linearGradient>
<linearGradient id="paint3_linear_12_6" x1="-618.874" y1="64.4495" x2="-811.487" y2="928.465" gradientUnits="userSpaceOnUse">
<stop offset="0.172" stop-opacity="0.1"/>
<stop offset="0.448" stop-color="#04D2CA" stop-opacity="0.2"/>
<stop offset="0.667" stop-color="#6A49E4" stop-opacity="0.4"/>
<stop offset="1" stop-opacity="0.2"/>
</linearGradient>
<linearGradient id="paint4_linear_12_6" x1="-595.45" y1="44.931" x2="-789.535" y2="912.678" gradientUnits="userSpaceOnUse">
<stop offset="0.172" stop-opacity="0.1"/>
<stop offset="0.448" stop-color="#04D2CA" stop-opacity="0.2"/>
<stop offset="0.667" stop-color="#6A49E4" stop-opacity="0.4"/>
<stop offset="1" stop-opacity="0.2"/>
</linearGradient>
<linearGradient id="paint5_linear_12_6" x1="-572.014" y1="25.2395" x2="-767.7" y2="896.962" gradientUnits="userSpaceOnUse">
<stop offset="0.172" stop-opacity="0.1"/>
<stop offset="0.448" stop-color="#04D2CA" stop-opacity="0.2"/>
<stop offset="0.667" stop-color="#6A49E4" stop-opacity="0.4"/>
<stop offset="1" stop-opacity="0.2"/>
</linearGradient>
<linearGradient id="paint6_linear_12_6" x1="-548.55" y1="5.38836" x2="-745.936" y2="881.295" gradientUnits="userSpaceOnUse">
<stop offset="0.172" stop-opacity="0.1"/>
<stop offset="0.448" stop-color="#04D2CA" stop-opacity="0.2"/>
<stop offset="0.667" stop-color="#6A49E4" stop-opacity="0.4"/>
<stop offset="1" stop-opacity="0.2"/>
</linearGradient>
<linearGradient id="paint7_linear_12_6" x1="-525.126" y1="-14.5093" x2="-724.295" y2="865.765" gradientUnits="userSpaceOnUse">
<stop offset="0.172" stop-opacity="0.1"/>
<stop offset="0.448" stop-color="#04D2CA" stop-opacity="0.2"/>
<stop offset="0.667" stop-color="#6A49E4" stop-opacity="0.4"/>
<stop offset="1" stop-opacity="0.2"/>
</linearGradient>
<linearGradient id="paint8_linear_12_6" x1="-501.691" y1="-34.5718" x2="-702.749" y2="850.246" gradientUnits="userSpaceOnUse">
<stop offset="0.172" stop-opacity="0.1"/>
<stop offset="0.448" stop-color="#04D2CA" stop-opacity="0.2"/>
<stop offset="0.667" stop-color="#6A49E4" stop-opacity="0.4"/>
<stop offset="1" stop-opacity="0.2"/>
</linearGradient>
<linearGradient id="paint9_linear_12_6" x1="-478.227" y1="-54.7758" x2="-681.297" y2="834.835" gradientUnits="userSpaceOnUse">
<stop offset="0.172" stop-opacity="0.1"/>
<stop offset="0.448" stop-color="#04D2CA" stop-opacity="0.2"/>
<stop offset="0.667" stop-color="#6A49E4" stop-opacity="0.4"/>
<stop offset="1" stop-opacity="0.2"/>
</linearGradient>
<linearGradient id="paint10_linear_12_6" x1="-454.763" y1="-75.0048" x2="-659.904" y2="819.513" gradientUnits="userSpaceOnUse">
<stop offset="0.172" stop-opacity="0.1"/>
<stop offset="0.448" stop-color="#04D2CA" stop-opacity="0.2"/>
<stop offset="0.667" stop-color="#6A49E4" stop-opacity="0.4"/>
<stop offset="1" stop-opacity="0.2"/>
</linearGradient>
<linearGradient id="paint11_linear_12_6" x1="-431.367" y1="-95.4019" x2="-638.681" y2="804.205" gradientUnits="userSpaceOnUse">
<stop offset="0.172" stop-opacity="0.1"/>
<stop offset="0.448" stop-color="#04D2CA" stop-opacity="0.2"/>
<stop offset="0.667" stop-color="#6A49E4" stop-opacity="0.4"/>
<stop offset="1" stop-opacity="0.2"/>
</linearGradient>
<linearGradient id="paint12_linear_12_6" x1="-407.903" y1="-115.918" x2="-617.488" y2="788.957" gradientUnits="userSpaceOnUse">
<stop offset="0.172" stop-opacity="0.1"/>
<stop offset="0.448" stop-color="#04D2CA" stop-opacity="0.2"/>
<stop offset="0.667" stop-color="#6A49E4" stop-opacity="0.4"/>
<stop offset="1" stop-opacity="0.2"/>
</linearGradient>
<linearGradient id="paint13_linear_12_6" x1="-384.439" y1="-136.479" x2="-596.383" y2="773.819" gradientUnits="userSpaceOnUse">
<stop offset="0.172" stop-opacity="0.1"/>
<stop offset="0.448" stop-color="#04D2CA" stop-opacity="0.2"/>
<stop offset="0.667" stop-color="#6A49E4" stop-opacity="0.4"/>
<stop offset="1" stop-opacity="0.2"/>
</linearGradient>
<linearGradient id="paint14_linear_12_6" x1="-361.003" y1="-157.168" x2="-575.394" y2="758.696" gradientUnits="userSpaceOnUse">
<stop offset="0.172" stop-opacity="0.1"/>
<stop offset="0.448" stop-color="#04D2CA" stop-opacity="0.2"/>
<stop offset="0.667" stop-color="#6A49E4" stop-opacity="0.4"/>
<stop offset="1" stop-opacity="0.2"/>
</linearGradient>
<linearGradient id="paint15_linear_12_6" x1="-337.578" y1="-177.942" x2="-554.512" y2="743.693" gradientUnits="userSpaceOnUse">
<stop offset="0.172" stop-opacity="0.1"/>
<stop offset="0.448" stop-color="#04D2CA" stop-opacity="0.2"/>
<stop offset="0.667" stop-color="#6A49E4" stop-opacity="0.4"/>
<stop offset="1" stop-opacity="0.2"/>
</linearGradient>
<linearGradient id="paint16_linear_12_6" x1="-314.114" y1="-198.797" x2="-533.667" y2="728.706" gradientUnits="userSpaceOnUse">
<stop offset="0.172" stop-opacity="0.1"/>
<stop offset="0.448" stop-color="#04D2CA" stop-opacity="0.2"/>
<stop offset="0.667" stop-color="#6A49E4" stop-opacity="0.4"/>
<stop offset="1" stop-opacity="0.2"/>
</linearGradient>
<linearGradient id="paint17_linear_12_6" x1="-290.677" y1="-219.705" x2="-512.908" y2="713.734" gradientUnits="userSpaceOnUse">
<stop offset="0.172" stop-opacity="0.1"/>
<stop offset="0.448" stop-color="#04D2CA" stop-opacity="0.2"/>
<stop offset="0.667" stop-color="#6A49E4" stop-opacity="0.4"/>
<stop offset="1" stop-opacity="0.2"/>
</linearGradient>
<linearGradient id="paint18_linear_12_6" x1="-267.254" y1="-240.68" x2="-492.247" y2="698.874" gradientUnits="userSpaceOnUse">
<stop offset="0.172" stop-opacity="0.1"/>
<stop offset="0.448" stop-color="#04D2CA" stop-opacity="0.2"/>
<stop offset="0.667" stop-color="#6A49E4" stop-opacity="0.4"/>
<stop offset="1" stop-opacity="0.2"/>
</linearGradient>
<linearGradient id="paint19_linear_12_6" x1="-243.789" y1="-261.775" x2="-471.645" y2="684.036" gradientUnits="userSpaceOnUse">
<stop offset="0.172" stop-opacity="0.1"/>
<stop offset="0.448" stop-color="#04D2CA" stop-opacity="0.2"/>
<stop offset="0.667" stop-color="#6A49E4" stop-opacity="0.4"/>
<stop offset="1" stop-opacity="0.2"/>
</linearGradient>
<linearGradient id="paint20_linear_12_6" x1="-220.353" y1="-282.906" x2="-451.121" y2="669.217" gradientUnits="userSpaceOnUse">
<stop offset="0.172" stop-opacity="0.1"/>
<stop offset="0.448" stop-color="#04D2CA" stop-opacity="0.2"/>
<stop offset="0.667" stop-color="#6A49E4" stop-opacity="0.4"/>
<stop offset="1" stop-opacity="0.2"/>
</linearGradient>
<linearGradient id="paint21_linear_12_6" x1="-196.888" y1="-304.066" x2="-430.642" y2="654.484" gradientUnits="userSpaceOnUse">
<stop offset="0.172" stop-opacity="0.1"/>
<stop offset="0.448" stop-color="#04D2CA" stop-opacity="0.2"/>
<stop offset="0.667" stop-color="#6A49E4" stop-opacity="0.4"/>
<stop offset="1" stop-opacity="0.2"/>
</linearGradient>
<linearGradient id="paint22_linear_12_6" x1="-173.464" y1="-325.327" x2="-410.257" y2="639.732" gradientUnits="userSpaceOnUse">
<stop offset="0.172" stop-opacity="0.1"/>
<stop offset="0.448" stop-color="#04D2CA" stop-opacity="0.2"/>
<stop offset="0.667" stop-color="#6A49E4" stop-opacity="0.4"/>
<stop offset="1" stop-opacity="0.2"/>
</linearGradient>
<linearGradient id="paint23_linear_12_6" x1="-150.027" y1="-346.613" x2="-389.931" y2="625.03" gradientUnits="userSpaceOnUse">
<stop offset="0.172" stop-opacity="0.1"/>
<stop offset="0.448" stop-color="#04D2CA" stop-opacity="0.2"/>
<stop offset="0.667" stop-color="#6A49E4" stop-opacity="0.4"/>
<stop offset="1" stop-opacity="0.2"/>
</linearGradient>
<linearGradient id="paint24_linear_12_6" x1="-126.563" y1="-367.92" x2="-369.645" y2="610.403" gradientUnits="userSpaceOnUse">
<stop offset="0.172" stop-opacity="0.1"/>
<stop offset="0.448" stop-color="#04D2CA" stop-opacity="0.2"/>
<stop offset="0.667" stop-color="#6A49E4" stop-opacity="0.4"/>
<stop offset="1" stop-opacity="0.2"/>
</linearGradient>
<linearGradient id="paint25_linear_12_6" x1="-103.099" y1="-389.282" x2="-349.415" y2="595.793" gradientUnits="userSpaceOnUse">
<stop offset="0.172" stop-opacity="0.1"/>
<stop offset="0.448" stop-color="#04D2CA" stop-opacity="0.2"/>
<stop offset="0.667" stop-color="#6A49E4" stop-opacity="0.4"/>
<stop offset="1" stop-opacity="0.2"/>
</linearGradient>
<linearGradient id="paint26_linear_12_6" x1="-79.7016" y1="-410.687" x2="-329.302" y2="581.2" gradientUnits="userSpaceOnUse">
<stop offset="0.172" stop-opacity="0.1"/>
<stop offset="0.448" stop-color="#04D2CA" stop-opacity="0.2"/>
<stop offset="0.667" stop-color="#6A49E4" stop-opacity="0.4"/>
<stop offset="1" stop-opacity="0.2"/>
</linearGradient>
<linearGradient id="paint27_linear_12_6" x1="-56.2367" y1="-432.104" x2="-309.191" y2="566.679" gradientUnits="userSpaceOnUse">
<stop offset="0.172" stop-opacity="0.1"/>
<stop offset="0.448" stop-color="#04D2CA" stop-opacity="0.2"/>
<stop offset="0.667" stop-color="#6A49E4" stop-opacity="0.4"/>
<stop offset="1" stop-opacity="0.2"/>
</linearGradient>
<linearGradient id="paint28_linear_12_6" x1="-32.7727" y1="-453.599" x2="-289.148" y2="552.162" gradientUnits="userSpaceOnUse">
<stop offset="0.172" stop-opacity="0.1"/>
<stop offset="0.448" stop-color="#04D2CA" stop-opacity="0.2"/>
<stop offset="0.667" stop-color="#6A49E4" stop-opacity="0.4"/>
<stop offset="1" stop-opacity="0.2"/>
</linearGradient>
<linearGradient id="paint29_linear_12_6" x1="-9.37566" y1="-475.096" x2="-269.2" y2="537.65" gradientUnits="userSpaceOnUse">
<stop offset="0.172" stop-opacity="0.1"/>
<stop offset="0.448" stop-color="#04D2CA" stop-opacity="0.2"/>
<stop offset="0.667" stop-color="#6A49E4" stop-opacity="0.4"/>
<stop offset="1" stop-opacity="0.2"/>
</linearGradient>
<linearGradient id="paint30_linear_12_6" x1="14.0883" y1="-496.599" x2="-249.249" y2="523.211" gradientUnits="userSpaceOnUse">
<stop offset="0.172" stop-opacity="0.1"/>
<stop offset="0.448" stop-color="#04D2CA" stop-opacity="0.2"/>
<stop offset="0.667" stop-color="#6A49E4" stop-opacity="0.4"/>
<stop offset="1" stop-opacity="0.2"/>
</linearGradient>
<linearGradient id="paint31_linear_12_6" x1="37.5531" y1="-518.142" x2="-229.322" y2="508.732" gradientUnits="userSpaceOnUse">
<stop offset="0.172" stop-opacity="0.1"/>
<stop offset="0.448" stop-color="#04D2CA" stop-opacity="0.2"/>
<stop offset="0.667" stop-color="#6A49E4" stop-opacity="0.4"/>
<stop offset="1" stop-opacity="0.2"/>
</linearGradient>
<linearGradient id="paint32_linear_12_6" x1="60.9894" y1="-539.7" x2="-209.484" y2="494.292" gradientUnits="userSpaceOnUse">
<stop offset="0.172" stop-opacity="0.1"/>
<stop offset="0.448" stop-color="#04D2CA" stop-opacity="0.2"/>
<stop offset="0.667" stop-color="#6A49E4" stop-opacity="0.4"/>
<stop offset="1" stop-opacity="0.2"/>
</linearGradient>
<linearGradient id="paint33_linear_12_6" x1="84.4142" y1="-561.268" x2="-189.715" y2="479.926" gradientUnits="userSpaceOnUse">
<stop offset="0.172" stop-opacity="0.1"/>
<stop offset="0.448" stop-color="#04D2CA" stop-opacity="0.2"/>
<stop offset="0.667" stop-color="#6A49E4" stop-opacity="0.4"/>
<stop offset="1" stop-opacity="0.2"/>
</linearGradient>
<linearGradient id="paint34_linear_12_6" x1="107.878" y1="-582.871" x2="-169.953" y2="465.55" gradientUnits="userSpaceOnUse">
<stop offset="0.172" stop-opacity="0.1"/>
<stop offset="0.448" stop-color="#04D2CA" stop-opacity="0.2"/>
<stop offset="0.667" stop-color="#6A49E4" stop-opacity="0.4"/>
<stop offset="1" stop-opacity="0.2"/>
</linearGradient>
<linearGradient id="paint35_linear_12_6" x1="131.315" y1="-604.517" x2="-150.276" y2="451.173" gradientUnits="userSpaceOnUse">
<stop offset="0.172" stop-opacity="0.1"/>
<stop offset="0.448" stop-color="#04D2CA" stop-opacity="0.2"/>
<stop offset="0.667" stop-color="#6A49E4" stop-opacity="0.4"/>
<stop offset="1" stop-opacity="0.2"/>
</linearGradient>
<linearGradient id="paint36_linear_12_6" x1="154.78" y1="-626.136" x2="-130.611" y2="436.862" gradientUnits="userSpaceOnUse">
<stop offset="0.172" stop-opacity="0.1"/>
<stop offset="0.448" stop-color="#04D2CA" stop-opacity="0.2"/>
<stop offset="0.667" stop-color="#6A49E4" stop-opacity="0.4"/>
<stop offset="1" stop-opacity="0.2"/>
</linearGradient>
<linearGradient id="paint37_linear_12_6" x1="178.204" y1="-647.783" x2="-111.016" y2="422.544" gradientUnits="userSpaceOnUse">
<stop offset="0.172" stop-opacity="0.1"/>
<stop offset="0.448" stop-color="#04D2CA" stop-opacity="0.2"/>
<stop offset="0.667" stop-color="#6A49E4" stop-opacity="0.4"/>
<stop offset="1" stop-opacity="0.2"/>
</linearGradient>
<linearGradient id="paint38_linear_12_6" x1="201.641" y1="-669.454" x2="-91.4777" y2="408.246" gradientUnits="userSpaceOnUse">
<stop offset="0.172" stop-opacity="0.1"/>
<stop offset="0.448" stop-color="#04D2CA" stop-opacity="0.2"/>
<stop offset="0.667" stop-color="#6A49E4" stop-opacity="0.4"/>
<stop offset="1" stop-opacity="0.2"/>
</linearGradient>
<linearGradient id="paint39_linear_12_6" x1="225.106" y1="-691.125" x2="-71.9331" y2="393.956" gradientUnits="userSpaceOnUse">
<stop offset="0.172" stop-opacity="0.1"/>
<stop offset="0.448" stop-color="#04D2CA" stop-opacity="0.2"/>
<stop offset="0.667" stop-color="#6A49E4" stop-opacity="0.4"/>
<stop offset="1" stop-opacity="0.2"/>
</linearGradient>
<linearGradient id="paint40_linear_12_6" x1="248.53" y1="-712.767" x2="-52.4403" y2="379.681" gradientUnits="userSpaceOnUse">
<stop offset="0.172" stop-opacity="0.1"/>
<stop offset="0.448" stop-color="#04D2CA" stop-opacity="0.2"/>
<stop offset="0.667" stop-color="#6A49E4" stop-opacity="0.4"/>
<stop offset="1" stop-opacity="0.2"/>
</linearGradient>
<linearGradient id="paint41_linear_12_6" x1="271.967" y1="-734.47" x2="-33.005" y2="365.391" gradientUnits="userSpaceOnUse">
<stop offset="0.172" stop-opacity="0.1"/>
<stop offset="0.448" stop-color="#04D2CA" stop-opacity="0.2"/>
<stop offset="0.667" stop-color="#6A49E4" stop-opacity="0.4"/>
<stop offset="1" stop-opacity="0.2"/>
</linearGradient>
<linearGradient id="paint42_linear_12_6" x1="295.431" y1="-756.169" x2="-13.5825" y2="351.139" gradientUnits="userSpaceOnUse">
<stop offset="0.172" stop-opacity="0.1"/>
<stop offset="0.448" stop-color="#04D2CA" stop-opacity="0.2"/>
<stop offset="0.667" stop-color="#6A49E4" stop-opacity="0.4"/>
<stop offset="1" stop-opacity="0.2"/>
</linearGradient>
<linearGradient id="paint43_linear_12_6" x1="318.896" y1="-777.877" x2="5.80169" y2="336.898" gradientUnits="userSpaceOnUse">
<stop offset="0.172" stop-opacity="0.1"/>
<stop offset="0.448" stop-color="#04D2CA" stop-opacity="0.2"/>
<stop offset="0.667" stop-color="#6A49E4" stop-opacity="0.4"/>
<stop offset="1" stop-opacity="0.2"/>
</linearGradient>
<linearGradient id="paint44_linear_12_6" x1="342.293" y1="-799.602" x2="25.0636" y2="322.681" gradientUnits="userSpaceOnUse">
<stop offset="0.172" stop-opacity="0.1"/>
<stop offset="0.448" stop-color="#04D2CA" stop-opacity="0.2"/>
<stop offset="0.667" stop-color="#6A49E4" stop-opacity="0.4"/>
<stop offset="1" stop-opacity="0.2"/>
</linearGradient>
<linearGradient id="paint45_linear_12_6" x1="365.757" y1="-821.323" x2="44.3723" y2="308.458" gradientUnits="userSpaceOnUse">
<stop offset="0.172" stop-opacity="0.1"/>
<stop offset="0.448" stop-color="#04D2CA" stop-opacity="0.2"/>
<stop offset="0.667" stop-color="#6A49E4" stop-opacity="0.4"/>
<stop offset="1" stop-opacity="0.2"/>
</linearGradient>
<linearGradient id="paint46_linear_12_6" x1="389.222" y1="-843.05" x2="63.6429" y2="294.245" gradientUnits="userSpaceOnUse">
<stop offset="0.172" stop-opacity="0.1"/>
<stop offset="0.448" stop-color="#04D2CA" stop-opacity="0.2"/>
<stop offset="0.667" stop-color="#6A49E4" stop-opacity="0.4"/>
<stop offset="1" stop-opacity="0.2"/>
</linearGradient>
<linearGradient id="paint47_linear_12_6" x1="412.658" y1="-864.729" x2="82.8647" y2="280.05" gradientUnits="userSpaceOnUse">
<stop offset="0.172" stop-opacity="0.1"/>
<stop offset="0.448" stop-color="#04D2CA" stop-opacity="0.2"/>
<stop offset="0.667" stop-color="#6A49E4" stop-opacity="0.4"/>
<stop offset="1" stop-opacity="0.2"/>
</linearGradient>
<linearGradient id="paint48_linear_12_6" x1="436.084" y1="-886.489" x2="102.018" y2="265.856" gradientUnits="userSpaceOnUse">
<stop offset="0.172" stop-opacity="0.1"/>
<stop offset="0.448" stop-color="#04D2CA" stop-opacity="0.2"/>
<stop offset="0.667" stop-color="#6A49E4" stop-opacity="0.4"/>
<stop offset="1" stop-opacity="0.2"/>
</linearGradient>
<linearGradient id="paint49_linear_12_6" x1="459.548" y1="-908.23" x2="121.181" y2="251.663" gradientUnits="userSpaceOnUse">
<stop offset="0.172" stop-opacity="0.1"/>
<stop offset="0.448" stop-color="#04D2CA" stop-opacity="0.2"/>
<stop offset="0.667" stop-color="#6A49E4" stop-opacity="0.4"/>
<stop offset="1" stop-opacity="0.2"/>
</linearGradient>
<linearGradient id="paint50_linear_12_6" x1="482.985" y1="-929.967" x2="140.29" y2="237.455" gradientUnits="userSpaceOnUse">
<stop offset="0.172" stop-opacity="0.1"/>
<stop offset="0.448" stop-color="#04D2CA" stop-opacity="0.2"/>
<stop offset="0.667" stop-color="#6A49E4" stop-opacity="0.4"/>
<stop offset="1" stop-opacity="0.2"/>
</linearGradient>
<linearGradient id="paint51_linear_12_6" x1="506.409" y1="-951.738" x2="159.338" y2="223.276" gradientUnits="userSpaceOnUse">
<stop offset="0.172" stop-opacity="0.1"/>
<stop offset="0.448" stop-color="#04D2CA" stop-opacity="0.2"/>
<stop offset="0.667" stop-color="#6A49E4" stop-opacity="0.4"/>
<stop offset="1" stop-opacity="0.2"/>
</linearGradient>
<linearGradient id="paint52_linear_12_6" x1="529.874" y1="-973.491" x2="178.396" y2="209.097" gradientUnits="userSpaceOnUse">
<stop offset="0.172" stop-opacity="0.1"/>
<stop offset="0.448" stop-color="#04D2CA" stop-opacity="0.2"/>
<stop offset="0.667" stop-color="#6A49E4" stop-opacity="0.4"/>
<stop offset="1" stop-opacity="0.2"/>
</linearGradient>
<linearGradient id="paint53_linear_12_6" x1="553.311" y1="-995.236" x2="197.382" y2="194.936" gradientUnits="userSpaceOnUse">
<stop offset="0.172" stop-opacity="0.1"/>
<stop offset="0.448" stop-color="#04D2CA" stop-opacity="0.2"/>
<stop offset="0.667" stop-color="#6A49E4" stop-opacity="0.4"/>
<stop offset="1" stop-opacity="0.2"/>
</linearGradient>
<linearGradient id="paint54_linear_12_6" x1="576.776" y1="-1017.02" x2="216.36" y2="180.762" gradientUnits="userSpaceOnUse">
<stop offset="0.172" stop-opacity="0.1"/>
<stop offset="0.448" stop-color="#04D2CA" stop-opacity="0.2"/>
<stop offset="0.667" stop-color="#6A49E4" stop-opacity="0.4"/>
<stop offset="1" stop-opacity="0.2"/>
</linearGradient>
</defs>
</svg>
