<svg xmlns="http://www.w3.org/2000/svg" width="512" viewBox="0 0 384 384" height="512" version="1.0"><defs><clipPath id="a"><path d="M73 32h255v314H73zm0 0"/></clipPath><clipPath id="b"><path d="M78.566-35.73 419.918 78.637 305.555 419.988-35.797 305.621zm0 0"/></clipPath><clipPath id="c"><path d="M78.566-35.73 419.918 78.637 305.555 419.988-35.797 305.621zm0 0"/></clipPath></defs><g clip-path="url(#a)"><g clip-path="url(#b)"><g clip-path="url(#c)"><path fill="#4d67ff" d="m323.352 182.723-195.91 159.793c-2.141 2.843-7.122 3.546-10.325 2.472-1.066-.355-2.133-.715-2.84-2.136-3.554-3.563-5.324-8.903-2.468-13.88l63.879-130.464-93.872-31.45c-4.27-1.43-6.754-4.636-7.816-8.55-1.059-3.914 1.438-7.824 4.64-10.313L235.349 34.594c4.632-3.196 9.254-2.832 13.164-.336s5.68 7.836 4.25 12.101l-28.59 85.34 96.004 32.164c4.27 1.43 6.754 4.637 7.816 8.551-.008 3.559-1.437 7.824-4.64 10.309zm0 0"/></g></g></g></svg>